<svg id="svg" version="1.1" xmlns="http://www.w3.org/2000/svg" xmlns:xlink="http://www.w3.org/1999/xlink" width="400" height="740.0180668473351" viewBox="0, 0, 400,740.0180668473351"><g id="svgg"><path id="path0" d="M4.148 35.411 C 4.148 54.986,4.192 62.995,4.246 53.207 C 4.299 43.419,4.299 27.403,4.246 17.615 C 4.192 7.827,4.148 15.836,4.148 35.411 M395.838 35.411 C 395.838 54.986,395.881 62.995,395.935 53.207 C 395.988 43.419,395.988 27.403,395.935 17.615 C 395.881 7.827,395.838 15.836,395.838 35.411 M0.000 107.859 L 0.000 115.989 200.000 115.989 L 400.000 115.989 400.000 107.859 L 400.000 99.729 200.000 99.729 L 0.000 99.729 0.000 107.859 M4.135 155.736 C 4.135 161.798,4.185 164.277,4.245 161.247 C 4.305 158.216,4.305 153.257,4.245 150.226 C 4.185 147.195,4.135 149.675,4.135 155.736 M395.824 155.736 C 395.824 161.798,395.874 164.277,395.934 161.247 C 395.995 158.216,395.995 153.257,395.934 150.226 C 395.874 147.195,395.824 149.675,395.824 155.736 M0.000 203.613 L 0.000 211.743 200.000 211.743 L 400.000 211.743 400.000 203.613 L 400.000 195.483 200.000 195.483 L 0.000 195.483 0.000 203.613 M4.135 251.491 C 4.135 257.552,4.185 260.032,4.245 257.001 C 4.305 253.970,4.305 249.011,4.245 245.980 C 4.185 242.949,4.135 245.429,4.135 251.491 M395.824 251.491 C 395.824 257.552,395.874 260.032,395.934 257.001 C 395.995 253.970,395.995 249.011,395.934 245.980 C 395.874 242.949,395.824 245.429,395.824 251.491 M0.000 299.368 L 0.000 307.498 200.000 307.498 L 400.000 307.498 400.000 299.368 L 400.000 291.238 200.000 291.238 L 0.000 291.238 0.000 299.368 M4.135 347.245 C 4.135 353.306,4.185 355.786,4.245 352.755 C 4.305 349.724,4.305 344.765,4.245 341.734 C 4.185 338.704,4.135 341.183,4.135 347.245 M395.824 347.245 C 395.824 353.306,395.874 355.786,395.934 352.755 C 395.995 349.724,395.995 344.765,395.934 341.734 C 395.874 338.704,395.824 341.183,395.824 347.245 M0.000 395.122 L 0.000 403.252 200.000 403.252 L 400.000 403.252 400.000 395.122 L 400.000 386.992 200.000 386.992 L 0.000 386.992 0.000 395.122 M4.135 442.999 C 4.135 449.061,4.185 451.540,4.245 448.509 C 4.305 445.479,4.305 440.519,4.245 437.489 C 4.185 434.458,4.135 436.938,4.135 442.999 M395.824 442.999 C 395.824 449.061,395.874 451.540,395.934 448.509 C 395.995 445.479,395.995 440.519,395.934 437.489 C 395.874 434.458,395.824 436.938,395.824 442.999 M0.000 578.500 L 0.000 612.827 200.000 612.827 L 400.000 612.827 400.000 578.500 L 400.000 544.173 200.000 544.173 L 0.000 544.173 0.000 578.500 M4.144 719.783 C 4.144 731.012,4.189 735.605,4.245 729.991 C 4.301 724.377,4.301 715.190,4.245 709.575 C 4.189 703.961,4.144 708.555,4.144 719.783 M395.833 719.783 C 395.833 731.012,395.879 735.605,395.935 729.991 C 395.991 724.377,395.991 715.190,395.935 709.575 C 395.879 703.961,395.833 708.555,395.833 719.783 " stroke="none" fill="#5c8cac" fill-rule="evenodd"></path><path id="path1" d="M4.336 35.411 L 4.336 70.822 200.000 70.822 L 395.664 70.822 395.664 35.411 L 395.664 0.000 200.000 0.000 L 4.336 0.000 4.336 35.411 M4.336 155.736 L 4.336 166.576 200.000 166.576 L 395.664 166.576 395.664 155.736 L 395.664 144.896 200.000 144.896 L 4.336 144.896 4.336 155.736 M4.336 251.491 L 4.336 262.331 200.000 262.331 L 395.664 262.331 395.664 251.491 L 395.664 240.650 200.000 240.650 L 4.336 240.650 4.336 251.491 M4.336 347.245 L 4.336 358.085 200.000 358.085 L 395.664 358.085 395.664 347.245 L 395.664 336.405 200.000 336.405 L 4.336 336.405 4.336 347.245 M4.336 442.999 L 4.336 453.839 200.000 453.839 L 395.664 453.839 395.664 442.999 L 395.664 432.159 200.000 432.159 L 4.336 432.159 4.336 442.999 M4.336 719.783 L 4.336 740.018 200.000 740.018 L 395.664 740.018 395.664 719.783 L 395.664 699.548 200.000 699.548 L 4.336 699.548 4.336 719.783 " stroke="none" fill="#c4ecf4" fill-rule="evenodd"></path><path id="path2" d="M0.000 85.276 L 0.000 99.729 200.000 99.729 L 400.000 99.729 400.000 85.276 L 400.000 70.822 200.000 70.822 L 0.000 70.822 0.000 85.276 M0.000 130.443 L 0.000 144.896 200.000 144.896 L 400.000 144.896 400.000 130.443 L 400.000 115.989 200.000 115.989 L 0.000 115.989 0.000 130.443 M0.000 181.030 L 0.000 195.483 200.000 195.483 L 400.000 195.483 400.000 181.030 L 400.000 166.576 200.000 166.576 L 0.000 166.576 0.000 181.030 M0.000 226.197 L 0.000 240.650 200.000 240.650 L 400.000 240.650 400.000 226.197 L 400.000 211.743 200.000 211.743 L 0.000 211.743 0.000 226.197 M0.000 276.784 L 0.000 291.238 200.000 291.238 L 400.000 291.238 400.000 276.784 L 400.000 262.331 200.000 262.331 L 0.000 262.331 0.000 276.784 M0.000 321.951 L 0.000 336.405 200.000 336.405 L 400.000 336.405 400.000 321.951 L 400.000 307.498 200.000 307.498 L 0.000 307.498 0.000 321.951 M0.000 372.538 L 0.000 386.992 200.000 386.992 L 400.000 386.992 400.000 372.538 L 400.000 358.085 200.000 358.085 L 0.000 358.085 0.000 372.538 M0.000 417.706 L 0.000 432.159 200.000 432.159 L 400.000 432.159 400.000 417.706 L 400.000 403.252 200.000 403.252 L 0.000 403.252 0.000 417.706 M0.000 499.006 L 0.000 544.173 200.000 544.173 L 400.000 544.173 400.000 499.006 L 400.000 453.839 200.000 453.839 L 0.000 453.839 0.000 499.006 M0.000 656.188 L 0.000 699.548 200.000 699.548 L 400.000 699.548 400.000 656.188 L 400.000 612.827 200.000 612.827 L 0.000 612.827 0.000 656.188 " stroke="none" fill="#041c2c" fill-rule="evenodd"></path></g></svg>