<svg id="svg" version="1.1" xmlns="http://www.w3.org/2000/svg" xmlns:xlink="http://www.w3.org/1999/xlink" width="400" height="740.0180668473351" viewBox="0, 0, 400,740.0180668473351"><g id="svgg"><path id="path0" d="M3.975 83.288 L 3.975 166.576 199.819 166.576 L 395.664 166.576 395.664 83.288 L 395.664 0.000 199.819 0.000 L 3.975 0.000 3.975 83.288 M3.975 251.491 L 3.975 262.331 199.819 262.331 L 395.664 262.331 395.664 251.491 L 395.664 240.650 199.819 240.650 L 3.975 240.650 3.975 251.491 M3.975 347.245 L 3.975 358.085 199.819 358.085 L 395.664 358.085 395.664 347.245 L 395.664 336.405 199.819 336.405 L 3.975 336.405 3.975 347.245 M3.975 442.999 L 3.975 453.839 199.819 453.839 L 395.664 453.839 395.664 442.999 L 395.664 432.159 199.819 432.159 L 3.975 432.159 3.975 442.999 M4.336 719.783 L 4.336 740.018 200.000 740.018 L 395.664 740.018 395.664 719.783 L 395.664 699.548 200.000 699.548 L 4.336 699.548 4.336 719.783 " stroke="none" fill="#c5edf4" fill-rule="evenodd"></path><path id="path1" d="M0.000 181.030 L 0.000 195.483 200.000 195.483 L 400.000 195.483 400.000 181.030 L 400.000 166.576 200.000 166.576 L 0.000 166.576 0.000 181.030 M0.000 226.197 L 0.000 240.650 200.000 240.650 L 400.000 240.650 400.000 226.197 L 400.000 211.743 200.000 211.743 L 0.000 211.743 0.000 226.197 M0.000 276.784 L 0.000 291.238 200.000 291.238 L 400.000 291.238 400.000 276.784 L 400.000 262.331 200.000 262.331 L 0.000 262.331 0.000 276.784 M0.000 321.951 L 0.000 336.405 200.000 336.405 L 400.000 336.405 400.000 321.951 L 400.000 307.498 200.000 307.498 L 0.000 307.498 0.000 321.951 M0.000 372.538 L 0.000 386.992 200.000 386.992 L 400.000 386.992 400.000 372.538 L 400.000 358.085 200.000 358.085 L 0.000 358.085 0.000 372.538 M0.000 417.706 L 0.000 432.159 200.000 432.159 L 400.000 432.159 400.000 417.706 L 400.000 403.252 200.000 403.252 L 0.000 403.252 0.000 417.706 M0.000 499.006 L 0.000 544.173 200.000 544.173 L 400.000 544.173 400.000 499.006 L 400.000 453.839 200.000 453.839 L 0.000 453.839 0.000 499.006 M0.000 656.188 L 0.000 699.548 200.000 699.548 L 400.000 699.548 400.000 656.188 L 400.000 612.827 200.000 612.827 L 0.000 612.827 0.000 656.188 " stroke="none" fill="#041a2a" fill-rule="evenodd"></path><path id="path2" d="M395.842 83.288 C 395.842 129.196,395.884 148.030,395.935 125.142 C 395.986 102.254,395.986 64.693,395.935 41.673 C 395.884 18.654,395.842 37.380,395.842 83.288 M0.000 203.613 L 0.000 211.743 200.000 211.743 L 400.000 211.743 400.000 203.613 L 400.000 195.483 200.000 195.483 L 0.000 195.483 0.000 203.613 M395.824 251.491 C 395.824 257.552,395.874 260.032,395.934 257.001 C 395.995 253.970,395.995 249.011,395.934 245.980 C 395.874 242.949,395.824 245.429,395.824 251.491 M0.000 299.368 L 0.000 307.498 200.000 307.498 L 400.000 307.498 400.000 299.368 L 400.000 291.238 200.000 291.238 L 0.000 291.238 0.000 299.368 M395.824 347.245 C 395.824 353.306,395.874 355.786,395.934 352.755 C 395.995 349.724,395.995 344.765,395.934 341.734 C 395.874 338.704,395.824 341.183,395.824 347.245 M0.000 395.122 L 0.000 403.252 200.000 403.252 L 400.000 403.252 400.000 395.122 L 400.000 386.992 200.000 386.992 L 0.000 386.992 0.000 395.122 M395.824 442.999 C 395.824 449.061,395.874 451.540,395.934 448.509 C 395.995 445.479,395.995 440.519,395.934 437.489 C 395.874 434.458,395.824 436.938,395.824 442.999 M0.000 578.500 L 0.000 612.827 200.000 612.827 L 400.000 612.827 400.000 578.500 L 400.000 544.173 200.000 544.173 L 0.000 544.173 0.000 578.500 M4.144 719.783 C 4.144 731.012,4.189 735.605,4.245 729.991 C 4.301 724.377,4.301 715.190,4.245 709.575 C 4.189 703.961,4.144 708.555,4.144 719.783 M395.833 719.783 C 395.833 731.012,395.879 735.605,395.935 729.991 C 395.991 724.377,395.991 715.190,395.935 709.575 C 395.879 703.961,395.833 708.555,395.833 719.783 " stroke="none" fill="#5d8aa8" fill-rule="evenodd"></path></g></svg>