<svg version="1.1" xmlns="http://www.w3.org/2000/svg" xmlns:xlink="http://www.w3.org/1999/xlink" width="374.47696" height="255.76631" viewBox="0,0,374.47696,255.76631"><g transform="translate(-43.86349,-52.11685)"><g data-paper-data="{&quot;isPaintingLayer&quot;:true}" fill-rule="nonzero" stroke-linejoin="miter" stroke-miterlimit="10" stroke-dasharray="" stroke-dashoffset="0" style="mix-blend-mode: normal"><path d="M43.86349,307.88316v-255.76631h374.47696v255.76631z" fill="#3399ff" stroke="none" stroke-width="0" stroke-linecap="butt"/><g><g stroke="none" stroke-width="1" stroke-linecap="butt"><path d="M143.55411,176.76436c0,-48.77484 39.53982,-88.31466 88.31466,-88.31466c48.77484,0 88.31466,39.53982 88.31466,88.31466c0,48.77484 -39.53982,88.31466 -88.31466,88.31466c-48.77484,0 -88.31466,-39.53982 -88.31466,-88.31466z" fill="#f15b25"/><path d="M172.99233,176.76436c0,-32.51656 26.35988,-58.87644 58.87644,-58.87644c32.51656,0 58.87644,26.35988 58.87644,58.87644c0,32.51656 -26.35987,58.87644 -58.87644,58.87644c-32.51656,0 -58.87644,-26.35987 -58.87644,-58.87644z" fill="#ffffff"/><path d="M202.43055,176.76436c0,-16.25827 13.17995,-29.43822 29.43822,-29.43822c16.25827,0 29.43822,13.17995 29.43822,29.43822c0,16.25827 -13.17994,29.43822 -29.43822,29.43822c-16.25827,0 -29.43822,-13.17994 -29.43822,-29.43822z" fill="#006934"/></g><g stroke="#000000" stroke-width="0.5" stroke-linecap="butt"><path d="M223.2566,187.73483c-0.66535,-0.33163 -1.74033,0.11264 -1.87921,-1.21248c-0.55831,0.44357 -1.74426,0.0231 -1.54411,-0.99629c-0.51144,0.43938 -1.62404,0.17141 -1.36078,-0.87805c-0.61148,0.47925 -1.92925,-0.09935 -1.733,-1.11802c-1.1467,0.82627 -2.70704,-0.47015 -2.15419,-1.39018l0.69921,-2.09752l-1.11871,1.95759c-1.65814,0.7766 -2.87328,0.57861 -3.21624,-1.5385l0.2797,-2.37738l-0.69922,2.65722c-2.33861,1.83892 -2.42754,0.54181 -2.65723,-0.55942l1.52172,-2.7237l-2.36057,3.14279c-0.73603,0.91582 -2.45511,0.792 -1.81835,-1.25865c0,0 1.53864,-2.51702 1.81835,-3.21623c0.27986,-0.69965 -1.95759,3.21623 -1.95759,3.21623c-1.27824,0.8057 -2.53072,1.55082 -2.65722,-0.69922l1.57139,-3.02803l-1.60497,2.99444c-0.88504,1.05855 -3.17621,1.06066 -2.56696,-1.31671l1.44823,-2.87901l-1.92469,3.38974c-1.36149,1.35309 -3.63868,-0.02658 -3.05113,-1.05364l1.64345,-3.05112l-2.36827,3.40584c-1.26424,1.40697 -3.89418,0.27566 -2.53409,-1.69522l1.97508,-2.64043l-3.06861,3.33937c-0.84237,1.01658 -3.14695,0.74232 -2.24512,-0.962l2.23745,-3.07701l-2.83213,2.86712c-1.09074,1.17399 -4.38253,1.1369 -3.04203,-1.85265l1.43355,-2.37738l-2.69219,3.18126c-1.81206,1.70851 -4.40002,0.2001 -3.28621,-1.60846l1.60849,-2.86713c-1.59238,0.94731 -1.89324,1.9254 -4.09779,3.17775c-1.86453,1.14881 -3.92965,-0.67046 -3.59404,-1.08023l4.19573,-4.0558l-5.45437,4.09079c-1.9175,1.22856 -6.13232,0.39179 -2.41235,-2.27242l4.78973,-2.93707l-8.38865,4.47488c-1.72322,0.74161 -4.61412,0.40159 -2.51731,-1.3636l5.31446,-3.11128l-7.26924,3.91587c-1.48883,0.93192 -6.88584,-0.22178 -2.23744,-2.23745l6.01339,-3.21624l-8.80844,3.63602c-7.08943,1.60497 -5.94413,-2.29419 -2.93708,-2.37736l8.35367,-2.41235l-11.01228,2.41235c-6.92852,1.1474 -7.88563,-1.50913 -3.91589,-2.51731l11.29916,-1.56928l-11.71893,1.42935l-4.55114,-0.07346c-1.5595,0.22319 -4.40492,-0.96969 -3.18826,-2.65023c-3.17285,-0.10635 -3.36103,-1.8325 -1.60844,-1.88763c-2.05904,-0.20849 -4.11038,-0.30852 -6.31493,-2.52078c-2.16467,-2.67541 -1.7491,-3.62692 3.21624,-1.53851c5.33123,0.88021 10.8094,0.62255 16.2246,0.83886c-6.91941,-1.12992 -13.89479,-0.91164 -20.31047,-5.06959c-2.92344,-2.06742 -4.3899,-5.44597 0.62931,-2.79715c6.1778,2.9014 11.63498,3.29039 17.44897,4.92964c-6.7585,-2.78456 -14.90858,-1.67914 -20.76523,-10.10277c-2.63621,-4.36293 -0.47227,-4.21741 1.46853,-1.9226c5.48516,5.31866 11.80708,6.12672 17.55391,8.63352c-6.88442,-3.39325 -15.10029,-5.793 -18.11361,-14.37056c-1.10053,-4.57913 -0.77869,-5.24447 2.09751,-1.67843c5.34523,5.96022 10.6289,8.40127 16.08468,11.32714c-5.4012,-4.09287 -11.62798,-6.41568 -14.54547,-13.56598c-1.61966,-7.02366 0.26586,-6.012 2.37736,-1.95759c5.10037,6.90542 11.06478,7.95977 16.4275,12.13872c4.26849,1.29656 4.9782,1.07268 5.24798,0.30517c-1.03126,-2.62015 0.86827,-2.97206 2.55228,-0.9438c4.23281,3.92496 8.96655,5.94343 14.30059,8.03885c17.30904,-0.41279 17.81276,6.03229 25.52276,9.2632c7.94507,3.73816 11.05287,5.46416 14.6854,7.40915c1.61336,0.38081 2.95037,1.59 4.89467,0.97879z" fill="#c99632"/><g fill="none"><path d="M223.55724,175.74862l-0.83886,3.63601c-0.58419,1.39758 -2.54039,1.38711 -3.49608,-0.69921l0.97879,-2.09751l-1.11871,2.23744c-0.49114,0.51562 -2.98467,0.66606 -2.09752,-1.97508l0.83885,-1.80087l-1.11871,2.23745c-0.9424,1.10542 -3.11689,0.89972 -2.09753,-1.64345l1.25866,-1.99256l-2.09753,2.79715c-1.63226,0.82557 -2.78076,-0.07066 -2.0975,-1.5385l0.83886,-1.39858l-1.25866,1.81835c-1.3538,0.84168 -2.85689,0.45058 -2.23745,-1.67843l0.83886,-1.81836l-1.29363,2.04505c-1.24885,0.84796 -2.56737,0.5898 -2.06252,-1.3461l0.33617,-1.85194l-0.87876,2.46903c-0.65696,1.03406 -2.60748,0.4023 -2.32068,-1.31672l1.04525,-2.09753l-1.25866,2.37738c-2.58942,2.47743 -3.52372,-0.97863 -3.18125,-1.38108l1.78336,-2.53479l-1.81834,2.37736c-0.64646,1.38389 -3.93687,2.05555 -1.95759,-1.39857l1.67844,-2.23744l-2.41235,2.58727c-1.22855,1.32791 -4.92266,1.56299 -2.55229,-1.90512l1.79458,-2.01355c-1.5539,1.19009 -1.344,2.85381 -4.36503,3.71786c-1.59517,0.67444 -3.56396,-0.42677 -1.95758,-2.14718l1.66094,-2.47603l-0.43699,0.47197l-1.9296,2.19057c-1.09074,1.36219 -5.70414,0.66816 -2.65932,-1.54408l2.50889,-2.51729c-1.379,0.80809 -1.64064,2.22561 -3.60244,2.57536c-4.93733,2.08491 -4.50006,-1.27866 -3.58284,-1.85824c1.90931,-0.36102 2.55788,-1.44896 3.63603,-2.28993c-1.67282,1.60007 -3.79834,2.42284 -5.76851,3.51359c-1.29853,0.68005 -5.59081,-0.90253 -2.23744,-2.44734l4.4224,-2.14998l-6.99219,2.93708c-2.54788,1.14601 -4.2349,-0.68006 -2.74467,-1.29363l6.93971,-3.04203l-8.38865,3.21624c-2.91651,1.27893 -4.19153,-0.67026 -2.75588,-2.27872c2.04225,-0.68285 4.59033,-0.7528 5.80839,-2.70479c-2.03734,2.36268 -5.52714,2.50402 -8.64752,3.44503c-1.54738,0.09234 -1.94337,-2.52276 0.09117,-2.97906l5.22279,-0.93682l-8.38864,0.83048c-3.75145,0.13783 -4.42101,-3.85409 -1.40977,-3.57235c1.9345,0.37222 3.95225,-0.01148 6.02248,-0.12068c-3.22953,0.69384 -6.7452,0.04561 -10.15174,-0.09117c-4.59942,-0.1931 -2.73489,-3.25078 -0.84936,-3.22601l9.03932,0.5856l-10.90735,-0.97879c-2.9734,-0.35751 -2.09113,-2.36365 -0.13985,-2.23745l6.15331,0.27971l-8.24874,-0.97879c-3.58265,-1.27194 -1.42774,-3.51604 -0.41957,-3.07702l5.87345,1.39858l-5.25778,-1.50422c-2.02615,-1.27893 -1.37829,-3.62798 1.06205,-3.11059"/><path d="M221.73423,169.84523l-1.81835,0.13985c-0.82348,0.23318 -2.69939,3.62342 -2.23744,0c-1.30693,0.25047 -3.55276,2.76638 -2.79715,-1.95757c-0.91932,0.27103 -2.63602,3.41101 -2.37736,-0.55943c-1.06205,0.45336 -3.21412,4.02922 -2.23745,-1.39858c-1.05295,0.35822 -3.88929,5.15632 -2.79715,-1.11872c-1.80498,2.3186 -2.68121,2.08212 -2.37736,-1.39857c-0.9641,1.72951 -5.69434,5.25847 -2.38577,-1.05226c-1.48812,1.56929 -5.13885,4.66309 -2.95247,-0.66675c-0.67794,0.55692 -4.75404,3.07842 -2.61735,-1.56368c-1.11452,0.48415 -4.42379,4.12715 -2.69639,-1.42236c-1.51611,0.43797 -5.53833,4.68337 -3.61224,-1.16839c-3.83401,3.56186 -3.12387,1.1635 -2.27871,-1.38319c-1.03896,2.21302 -5.9917,4.30634 -2.99305,-0.36864c-3.02663,5.01612 -3.83821,1.10655 -2.09751,-0.39557c-2.23541,2.56347 -5.66217,1.69873 -2.1402,-0.78989c-3.37645,0.41699 -7.71279,2.75027 -8.6685,-1.67843l-0.05719,-0.36019c-0.84935,-0.03959 -1.40626,-0.78597 -3.61991,-0.4535l3.11758,-1.1439c-6.53462,-1.30131 -12.68863,-3.02034 -14.0837,-9.8299"/><path d="M154.49435,159.96327c-3.18334,0.41635 -5.06537,1.26985 -13.59395,0.69224"/><path d="M150.76528,158.00427c-2.93847,0.41635 -4.66657,1.26984 -12.53051,0.69223"/></g><g fill="#c99632"><path d="M137.11815,135.26705c-0.62731,-0.70454 -1.73929,-2.42633 -2.23674,-3.4625c-0.51207,-1.06696 -0.90323,-2.77266 -0.99559,-4.34195c-0.06409,-1.08723 0.01649,-1.29363 0.37747,-0.96761c0.28784,0.26048 0.98509,1.26424 1.44964,2.08632c0.49389,0.87455 1.28804,1.88202 2.36687,3.00423c0.44951,0.46737 0.79199,0.87456 0.76191,0.90534c-0.39802,-0.29105 -2.55438,2.1178 -1.48114,3.08679l0.18239,0.16478z"/><path d="M133.3429,139.25497c-1.39647,-1.86802 -2.37736,-3.90679 -2.75238,-5.72094c-0.17352,-0.83886 -0.28643,-1.61056 -0.25082,-1.71411c0.03556,-0.10376 1.04456,0.85496 2.24234,2.12971l2.17727,2.31859c-0.06656,0.72484 -1.60916,3.04692 -0.51436,4.06139l0.11495,0.2856z"/><path d="M132.46905,145.20188c-1.51051,-1.45104 -2.41863,-2.61944 -3.13226,-4.02921c-1.08793,-2.14859 -0.8088,-2.18216 1.40766,-0.16946c0.90114,0.81787 2.02266,1.73021 2.4935,2.02685c0.83956,0.52976 1.27265,0.73322 0.74162,1.40837c-0.57895,0.73532 -0.11411,1.07815 -0.11411,1.33491c0,0.25677 -0.07101,0.4668 -0.15783,0.4668c-0.08683,0 -0.64422,-0.46722 -1.23836,-1.03826z"/><path d="M135.54397,151.70852c-0.54558,-0.23969 -1.47554,-0.69089 -2.06605,-1.00259c-1.73301,-0.91443 -4.07469,-3.48769 -3.17426,-3.48769c0.10761,0 0.75631,0.22453 1.44195,0.49899c1.02987,0.41236 1.58747,0.84164 3.21203,2.4725c1.08094,1.08515 1.87852,1.96878 1.77148,1.96389c-0.10676,-0.0049 -0.64044,-0.20535 -1.18588,-0.44497z"/><path d="M138.74831,158.35509c-1.76938,-0.23305 -2.23676,-0.35444 -3.26312,-0.84866c-1.33981,-0.64437 -2.42355,-1.65325 -3.00844,-2.80064c-0.29642,-0.5814 -0.22646,-0.72693 0.31128,-0.64914c0.56278,0.08166 1.51121,0.36653 2.59844,0.7801c0.48947,0.18631 1.09913,0.36551 1.3545,0.39823c0.30281,0.03877 0.44876,0.10067 0.41909,0.17792c-0.02826,0.0736 1.30412,0.11669 2.94687,1.62107c0.65956,0.60365 1.91141,1.04317 2.99235,1.50213l-1.53291,-0.00562c-0.84376,-0.0035 -2.11081,-0.08192 -2.81816,-0.17512z"/><path d="M142.55432,160.45401c-2.1059,-0.15085 -3.2645,-0.37936 -3.6717,-0.72413c-0.22248,-0.18834 -0.22528,-0.20534 -0.05675,-0.33617c0.28475,-0.22108 0.98301,-0.2781 2.49071,-0.20345c1.26565,0.06268 1.40557,0.08724 1.3657,0.23998c-0.03386,0.1295 0.14635,0.26937 0.7542,0.58567c0.43931,0.22858 0.79899,0.43552 0.79899,0.45994c0,0.04583 -0.89764,0.03414 -1.68122,-0.02196z"/><path d="M142.85517,162.83277c-0.60407,-0.16233 -1.24045,-0.50458 -1.5273,-0.82138c-0.19751,-0.21822 -0.25543,-0.74301 -0.0988,-0.89415c0.05278,-0.05107 0.77239,-0.0456 1.72251,0.01316c0.89764,0.05548 2.66492,0.07927 3.92848,0.05288c2.26262,-0.04737 2.29482,-0.04513 2.19197,0.14692c-0.05741,0.10725 -0.08962,0.20836 -0.07163,0.22465c0.018,0.0163 -0.0022,0.52025 0.59608,0.82067c0.64549,0.32422 1.55181,0.32254 1.46365,0.35304c-0.82697,0.28651 -7.22727,0.36787 -8.20676,0.10439z"/><path d="M148.48726,165.77125c-0.68804,-0.15784 -1.01307,-0.2921 -1.1726,-0.4845c-0.25612,-0.30862 0.3545,-0.84517 1.36919,-1.20338c0.30757,-0.10852 7.13631,-1.13761 7.54909,-1.13761c0.03737,0 0.06795,0.06325 0.06795,0.14049c0,0.1661 1.54689,0.58967 2.32419,0.51291c1.90582,-0.1882 1.81347,0.29357 1.85475,0.32987c0.10446,0.09228 -7.68901,1.76589 -8.77346,1.88483c-1.18238,0.12914 -2.54388,0.1111 -3.21414,-0.04255z"/><path d="M154.43417,168.21998c-0.53914,-0.21674 -0.67879,-0.41586 -0.54943,-0.78361c0.14992,-0.42622 0.78429,-0.80318 1.62665,-0.96618c0.40789,-0.07906 1.87644,-0.47553 3.26312,-0.88084l2.52149,-0.73741l0.19121,0.48772l1.48043,0.4295c0.87174,-0.03294 1.89042,-0.56943 2.1353,-0.59385c0.30777,-0.03071 0.38402,-0.01776 0.24725,0.04213c-2.26263,0.99068 -6.89632,2.82722 -7.41616,2.94057c-0.38074,0.08277 -1.22647,0.16993 -1.87853,0.19379c-0.976,0.03569 -1.26353,0.01239 -1.62105,-0.13139z"/><path d="M161.44454,170.109c-0.64486,-0.11608 -1.09283,-0.27706 -1.24816,-0.44854c-0.16218,-0.17926 -0.15706,-0.2017 0.11033,-0.48079c0.15427,-0.16099 0.72902,-0.52214 1.27753,-0.80249c0.54844,-0.28035 1.5714,-0.81928 2.27383,-1.19847l1.27684,-0.68851l0.90392,0.83886c0.58657,0.5444 1.91979,0.0205 1.96527,0.0459c0.04543,0.0254 -1.02707,0.64191 -2.38366,1.36988c-2.42984,1.30483 -2.47672,1.32442 -3.19735,1.3664c-0.40229,0.02316 -0.84237,0.02211 -0.97879,-0.00212z"/><path d="M165.69134,170.66872c-0.13565,-0.04122 -0.26027,-0.14524 -0.27678,-0.23122c-0.05401,-0.28041 0.51424,-0.70734 2.41306,-1.81277l1.86803,-1.08793l3.33447,0.19779l-2.4977,1.3349c-1.37409,0.73391 -2.65793,1.3923 -2.85383,1.46225c-0.43589,0.15553 -1.65045,0.23933 -1.98698,0.13712z"/><path d="M171.13452,171.50828c-0.19023,-0.09885 -0.36094,-0.26068 -0.3794,-0.35968c-0.05548,-0.2972 0.4319,-0.91442 1.09215,-1.38389c0.72482,-0.51479 2.42144,-1.55111 2.53897,-1.55111c0.04445,0 0.31883,0.95291 0.9487,1.00678l1.14741,0.09795l-1.22436,0.92072c-1.63575,1.22996 -1.89391,1.35381 -2.93568,1.40628c-0.67977,0.03421 -0.90883,0.00768 -1.188,-0.13735z"/><path d="M176.91353,172.4178c-0.22094,-0.07844 -0.54775,-0.26447 -0.72622,-0.41349l-0.32449,-0.27089l1.10682,-1.08653c1.30483,-1.28104 0.84166,0.04253 2.81885,-0.10936l1.47344,-0.1132l-0.44057,0.3867c-0.63149,0.55433 -1.5497,1.21038 -2.1115,1.50842c-0.55236,0.29294 -1.1558,0.32609 -1.79597,0.09871z"/><path d="M182.40568,174.09693c-0.45302,-0.1945 -0.68732,-0.50653 -0.68999,-0.91933c-0.0026,-0.39389 0.94451,-2.22204 1.12082,-2.16327c0.06231,0.02086 0.54922,1.00326 1.64485,0.96339l1.46155,-0.0533l-0.59658,0.72132c-0.79969,0.96689 -1.26845,1.37549 -1.72181,1.50142c-0.50472,0.14014 -0.80318,0.12782 -1.21806,-0.0503z"/><path d="M186.44959,174.93648c-0.19379,-0.19381 -0.2891,-0.38898 -0.2891,-0.59224c0,-0.34122 0.26691,-1.09074 0.55215,-1.5504l0.18953,-0.30539c0.23122,0.35898 0.23347,0.77518 1.16421,0.95919c1.05086,0.44636 1.32161,0.11335 1.86313,0.05051l-0.54985,0.60764c-0.68697,0.75912 -1.36568,1.11942 -2.10869,1.11942c-0.45623,0 -0.5733,-0.04121 -0.82139,-0.28908z"/><path d="M190.14368,176.19585c-0.34435,-0.24123 -0.26531,-0.54369 0.37353,-1.42795c0.32631,-0.45191 0.5933,-0.77451 0.5933,-0.71644c0,0.05785 0.25272,0.61393 0.64703,0.68026c1.17399,0.19744 1.22787,-0.31162 0.38564,0.60336c-0.54377,0.59091 -0.84517,0.83817 -1.11174,0.91234c-0.49374,0.13712 -0.63001,0.12929 -0.88783,-0.05122z"/><path d="M193.61388,177.2453c-0.28756,-0.11598 -0.52976,-0.48302 -0.52976,-0.80247c0,-0.25467 0.6375,-1.32092 0.93961,-1.57139c0.11944,-0.09914 0.30022,0.40936 1.07745,0.58749c0.53025,0.1216 1.05576,-0.2378 1.12431,-0.20037c0.17442,0.09459 -0.98299,1.7414 -1.36149,1.93729c-0.31238,0.16155 -0.91443,0.18576 -1.25026,0.05023z"/><path d="M197.65778,177.87497c-0.3613,-0.08633 -0.7766,-0.35921 -0.93893,-0.61716c-0.10809,-0.17141 0.16414,-0.87526 0.52179,-1.3489l0.17708,-0.23452l0.99419,0.70734c0.42174,0.30001 1.1383,-0.25124 1.22925,-0.22599c0.14119,0.03919 0.10795,0.14594 -0.22569,0.72483c-0.53382,0.92562 -0.98229,1.17957 -1.7575,0.99488z"/><path d="M200.45632,178.78451c-0.22683,-0.13237 -0.40158,-0.70735 -0.31902,-1.04947c0.11531,-0.47806 0.53914,-1.24045 0.6636,-1.19357c0.0648,0.02442 0.33227,0.48548 0.80808,0.64003c0.4759,0.15455 1.03896,-0.00943 1.03755,0.02014c-0.00139,0.02958 -0.14616,0.3208 -0.32142,0.6471c-0.25145,0.46826 -0.4116,0.64024 -0.75981,0.81578c-0.47,0.23703 -0.83955,0.27698 -1.10892,0.11984z"/><path d="M202.97503,179.34421c-0.16399,-0.47051 -0.13791,-0.62414 0.23038,-1.35518l0.47877,-0.88295c0.27713,0.11264 0.84935,1.72181 2.43963,0.16302c0.16393,-0.16063 -0.81438,0.65409 -0.77451,0.65605c0.03967,0.0021 0.09312,-0.0259 -0.13761,0.36549c-0.3373,0.57223 -0.52571,0.7752 -0.96201,1.03825c-0.30728,0.18485 -0.67781,0.3266 -0.85426,0.32681c-0.2609,0.00034 -0.3294,-0.05038 -0.42028,-0.31099z"/><path d="M205.70362,180.60356c-0.31408,-0.31408 -0.20709,-0.88645 0.34422,-1.84145c0.27873,-0.48289 0.64681,-0.9403 0.62576,-0.87804c-0.17589,0.51605 1.17468,0.78707 1.42305,0.5464c0.04148,-0.04017 -1.38458,1.93171 -1.57698,2.09122c-0.26096,0.21661 -0.64303,0.25496 -0.81578,0.08199z"/><path d="M208.57213,181.02333c-0.30811,-0.49381 -0.28553,-0.73181 0.1444,-1.51471c0.22543,-0.41068 0.45993,-0.72762 0.52123,-0.70383c0.0613,0.02345 0.19619,0.26426 0.51347,0.36417c0.5602,0.17644 0.75001,0.05036 0.69256,0.33723c-0.18499,0.92493 -0.23095,0.99768 -0.86826,1.37479c-0.72132,0.4265 -0.81717,0.4402 -1.00329,0.14259z"/><path d="M212.28021,181.93287c-0.58209,-0.16637 -1.03267,-1.26565 -0.84936,-2.07303l0.08031,-0.35465l0.99489,0.59868c0.74371,0.44728 2.05693,0.26236 2.07303,0.27874c0.01595,0.0163 -0.14348,0.32378 -0.35436,0.6834c-0.3536,0.60296 -0.42014,0.66335 -0.85637,0.77732c-0.71153,0.18542 -0.74511,0.18819 -1.08793,0.0901z"/><path d="M220.46597,186.13069c-0.18583,-0.13019 -0.21976,-0.24613 -0.21976,-0.75071v-0.59715l-0.44876,0.26301c-0.24683,0.14469 -0.54719,0.24901 -0.66745,0.23187c-0.19905,-0.02833 -0.21871,-0.08669 -0.21871,-0.64935c0,-0.34004 -0.03513,-0.61812 -0.07808,-0.61806c-0.04295,0.0001 -0.25256,0.0892 -0.46574,0.19793c-0.51899,0.26481 -0.65439,0.25081 -1.00889,-0.10405c-0.27278,-0.27278 -0.29601,-0.34408 -0.24151,-0.74161c0.06906,-0.50373 0.02408,-0.52437 -0.52928,-0.24207c-0.53969,0.27531 -1.004,0.25573 -1.37689,-0.0582c-0.16735,-0.14077 -0.30426,-0.35207 -0.30426,-0.46939c0,-0.22878 0.47527,-1.74768 0.58504,-1.86943c0.0363,-0.04037 1.00397,0.23969 2.15069,0.62233l2.08422,0.69564l0.04637,0.72203c0.04212,0.65675 0.10657,0.83747 0.70874,1.99117c0.36429,0.69789 0.63984,1.32792 0.61226,1.39928c-0.06744,0.17567 -0.35885,0.16483 -0.62765,-0.02338z"/></g></g><g stroke="#000000" stroke-width="0.5" stroke-linecap="butt"><path d="M240.52865,169.25954c1.94429,0.61121 3.28132,-0.59797 4.89467,-0.97878c3.63252,-1.945 6.74031,-3.67101 14.68538,-7.40917c7.71,-3.23092 8.21375,-9.676 25.52278,-9.2632c5.33404,-2.09542 10.06778,-4.11386 14.30058,-8.03882c1.68403,-2.02825 3.58354,-1.67634 2.55227,0.9438c0.26978,0.76751 0.9795,0.99138 5.24799,-0.30517c5.36272,-4.17894 11.32712,-5.2333 16.42749,-12.13871c2.11152,-4.0544 3.99704,-5.06606 2.37738,1.9576c-2.91749,7.1503 -9.14425,9.47309 -14.54545,13.56596c5.45576,-2.92587 10.73942,-5.36692 16.08465,-11.32713c2.87621,-3.56605 3.19804,-2.90069 2.09752,1.67844c-3.01334,8.57756 -11.22918,10.97731 -18.11362,14.37056c5.74681,-2.5068 12.06875,-3.31487 17.55391,-8.63352c1.94079,-2.2948 4.10476,-2.44033 1.46852,1.9226c-5.85665,8.42363 -14.00673,7.31821 -20.76523,10.10276c5.81398,-1.63925 11.27117,-2.02825 17.44897,-4.92964c5.01919,-2.64884 3.55277,0.72972 0.62932,2.79714c-6.41567,4.15794 -13.39106,3.93967 -20.31048,5.06958c5.41519,-0.21633 10.89337,0.04134 16.2246,-0.83888c4.96531,-2.08841 5.3809,-1.1369 3.21624,1.53851c-2.20456,2.21224 -4.25591,2.31229 -6.31493,2.52079c1.75259,0.05513 1.56439,1.78128 -1.60846,1.88762c1.21667,1.68054 -1.62876,2.87342 -3.18826,2.65023l-4.55114,0.07345l-11.71893,-1.42934l11.29914,1.56928c3.96974,1.00817 3.01263,3.6647 -3.91588,2.5173l-11.01229,-2.41235l8.35368,2.41235c3.00704,0.08318 4.15234,3.98235 -2.93708,2.37738l-8.80843,-3.63602l6.01339,3.21623c4.64839,2.01567 -0.74861,3.16936 -2.23744,2.23745l-7.26923,-3.91587l5.31444,3.11128c2.09681,1.76519 -0.79409,2.10521 -2.51729,1.3636l-8.38866,-4.47488l4.78972,2.93707c3.71998,2.66422 -0.49486,3.50099 -2.41235,2.27242l-5.45437,-4.09078l4.19572,4.0558c0.33561,0.40977 -1.72951,2.22905 -3.59404,1.08024c-2.20456,-1.25235 -2.50539,-2.23044 -4.09777,-3.17775l1.60846,2.86712c1.11383,1.80857 -1.47413,3.317 -3.28619,1.60846l-2.69221,-3.18125l1.43355,2.37736c1.34051,2.98954 -1.95129,3.02664 -3.04203,1.85265l-2.83213,-2.86711l2.23744,3.07701c0.90184,1.70431 -1.40277,1.97858 -2.24514,0.962l-3.06861,-3.33938l1.97508,2.64045c1.36009,1.97088 -1.26985,3.10219 -2.53409,1.69521l-2.36827,-3.40583l1.64344,3.05112c0.58755,1.02706 -1.68962,2.40675 -3.05111,1.05366l-1.92471,-3.38975l1.44826,2.879c0.60924,2.37738 -1.68193,2.37528 -2.56697,1.31672l-1.60497,-2.99445l1.57138,3.02803c-0.12649,2.25004 -1.37899,1.50491 -2.65722,0.69921c0,0 -2.23746,-3.91587 -1.95759,-3.21623c0.27972,0.69921 1.81837,3.21623 1.81837,3.21623c0.63674,2.05065 -1.08234,2.17447 -1.81837,1.25864l-2.36057,-3.14278l1.52172,2.7237c-0.22969,1.10122 -0.31862,2.39835 -2.65723,0.55943l-0.69921,-2.65722l0.27972,2.37738c-0.34296,2.11711 -1.55809,2.31511 -3.21623,1.53851l-1.11873,-1.95759l0.69922,2.09753c0.55285,0.92004 -1.00749,2.21643 -2.15418,1.39016c0.19625,1.01868 -1.12152,1.59729 -1.733,1.11805c0.26326,1.04945 -0.84936,1.31741 -1.36078,0.87805c0.20016,1.01937 -0.98579,1.43985 -1.54409,0.99628c-0.13888,1.32512 -1.21388,0.88083 -1.87922,1.21246z" fill="#c99632"/><g fill="none"><path d="M307.23209,144.28248c2.44034,-0.51738 3.08818,1.83164 1.06204,3.11059l-5.25776,1.50422l5.87345,-1.39857c1.00818,-0.43902 3.16307,1.80507 -0.41957,3.07701l-8.24873,0.97879l6.15331,-0.27971c1.9513,-0.12622 2.83353,1.87992 -0.13986,2.23745l-10.90734,0.97879l9.03931,-0.58561c1.88552,-0.02477 3.75006,3.03293 -0.84936,3.22603c-3.40653,0.13678 -6.92221,0.785 -10.15174,0.09116c2.07023,0.10922 4.08798,0.49289 6.02248,0.12069c3.01124,-0.28173 2.34168,3.71017 -1.40977,3.57234l-8.38865,-0.83047l5.2228,0.93681c2.03454,0.4563 1.63855,3.07139 0.09117,2.97905c-3.12038,-0.94101 -6.61019,-1.08233 -8.64752,-3.445c1.21806,1.95199 3.76615,2.02196 5.80839,2.70481c1.43565,1.60846 0.16063,3.55765 -2.75588,2.27872l-8.38864,-3.21623l6.9397,3.04202c1.49023,0.61359 -0.1968,2.43964 -2.74468,1.29363l-6.99217,-2.93706l4.42241,2.14998c3.35336,1.54481 -0.93892,3.12737 -2.23745,2.44733c-1.97019,-1.09074 -4.09568,-1.91349 -5.76852,-3.51357c1.07814,0.84097 1.72671,1.92889 3.63602,2.28991c0.91721,0.57958 1.3545,3.94315 -3.58285,1.85823c-1.96177,-0.34975 -2.22345,-1.76728 -3.60244,-2.57537l2.50891,2.5173c3.04482,2.21224 -1.56858,2.90628 -2.65932,1.54409l-1.9296,-2.19057l-0.43699,-0.47198l1.66094,2.47603c1.60638,1.72041 -0.36242,2.82163 -1.95759,2.14719c-3.02104,-0.86406 -2.81115,-2.52779 -4.36504,-3.71788l1.79459,2.01357c2.37037,3.46811 -1.32372,3.23302 -2.55228,1.90511l-2.41234,-2.58727l1.67843,2.23745c1.97927,3.45412 -1.31113,2.78245 -1.95759,1.39858l-1.81836,-2.37736l1.78337,2.53478c0.34247,0.40245 -0.59181,3.85851 -3.18124,1.3811l-1.25866,-2.37736l1.04526,2.0975c0.28679,1.71901 -1.66374,2.35079 -2.32069,1.31672l-0.87874,-2.46902l0.33616,1.85194c0.50486,1.9359 -0.81368,2.19407 -2.06253,1.3461l-1.29363,-2.04504l0.83886,1.81836c0.61946,2.12901 -0.88363,2.5201 -2.23744,1.67842l-1.25865,-1.81835l0.83885,1.39858c0.68326,1.46784 -0.46526,2.36408 -2.09752,1.53851l-2.09751,-2.79715l1.25864,1.99257c1.01937,2.54317 -1.1551,2.74887 -2.09752,1.64345l-1.11872,-2.23745l0.83886,1.80087c0.88715,2.64112 -1.60637,2.49071 -2.09751,1.97508l-1.11872,-2.23745l0.97879,2.09752c-0.9557,2.08632 -2.91189,2.09682 -3.49608,0.69921l-0.83885,-3.63602"/><path d="M302.57949,144.35243c-1.39508,6.80956 -7.54908,8.52858 -14.0837,9.8299l3.11757,1.14391c-2.21365,-0.33247 -2.77057,0.4139 -3.61991,0.45351l-0.0572,0.36017c-0.95571,4.4287 -5.29206,2.09542 -8.6685,1.67844c3.52197,2.48862 0.09522,3.35336 -2.1402,0.7899c1.74069,1.50212 0.92911,5.41169 -2.09752,0.39557c2.99865,4.67498 -1.95408,2.58166 -2.99304,0.36863c0.84516,2.54666 1.5553,4.94504 -2.27871,1.38318c1.92609,5.85178 -2.09613,1.60636 -3.61224,1.16838c1.7274,5.54952 -1.58189,1.90652 -2.6964,1.42237c2.13669,4.6421 -1.93939,2.12061 -2.61735,1.56369c2.18637,5.32985 -1.46434,2.23604 -2.95248,0.66675c3.30858,6.31073 -1.42167,2.78176 -2.38577,1.05226c0.30385,3.48069 -0.57238,3.71717 -2.37736,1.39858c1.09213,6.27506 -1.74419,1.47694 -2.79714,1.11872c0.97668,5.42778 -1.1754,1.85194 -2.23745,1.39857c0.25866,3.97044 -1.45803,0.83047 -2.37736,0.55943c0.75561,4.72396 -1.49022,2.20807 -2.79715,1.95761c0.46196,3.62342 -1.41397,0.23318 -2.23745,0l-1.81835,-0.13987"/><path d="M319.68563,163.73241c-8.52859,0.57761 -10.41061,-0.27586 -13.59396,-0.69223"/><path d="M322.35125,161.77342c-7.86393,0.57761 -9.59202,-0.27587 -12.5305,-0.69222"/></g><g fill="#c99632"><path d="M323.04305,138.81935l0.18239,-0.16476c1.07324,-0.96901 -1.08312,-3.37785 -1.48114,-3.08679c-0.03008,-0.03078 0.31239,-0.43797 0.76191,-0.90533c1.07885,-1.12222 1.87301,-2.1297 2.36688,-3.00423c0.46456,-0.82208 1.16181,-1.82585 1.44964,-2.08633c0.36097,-0.32602 0.44153,-0.11963 0.37745,0.96761c-0.09236,1.56929 -0.48352,3.275 -0.99558,4.34195c-0.49745,1.03617 -1.60944,2.75796 -2.23675,3.4625z"/><path d="M326.22612,143.69213l0.11496,-0.28559c1.09479,-1.01448 -0.44781,-3.33658 -0.51438,-4.0614l2.17728,-2.3186c1.19778,-1.27473 2.20675,-2.23346 2.24233,-2.1297c0.0356,0.10355 -0.07731,0.87525 -0.25083,1.71412c-0.375,1.81417 -1.35589,3.85292 -2.75237,5.72094z"/><path d="M328.11676,148.27881c-0.59414,0.57104 -1.15154,1.03825 -1.23837,1.03825c-0.08682,0 -0.15784,-0.21002 -0.15784,-0.46679c0,-0.25677 0.46486,-0.5996 -0.1141,-1.33492c-0.53102,-0.67514 -0.09794,-0.87862 0.74162,-1.40837c0.47085,-0.29664 1.59237,-1.20896 2.49351,-2.02685c2.21645,-2.01272 2.4956,-1.97914 1.40766,0.16945c-0.71363,1.40977 -1.62176,2.57815 -3.13228,4.02921z"/><path d="M325.04275,154.78558c-0.54543,0.23963 -1.07912,0.44008 -1.18588,0.44497c-0.10705,0.0049 0.69054,-0.87875 1.77148,-1.96389c1.62456,-1.63085 2.18218,-2.06014 3.21203,-2.47252c0.68565,-0.27448 1.33435,-0.49899 1.44196,-0.49899c0.90044,0 -1.44124,2.57326 -3.17426,3.48769c-0.5905,0.31169 -1.52045,0.76288 -2.06604,1.00258z"/><path d="M321.83779,161.43227c-0.70733,0.09319 -1.97438,0.17163 -2.81814,0.17513l-1.53291,0.0056c1.08094,-0.45896 2.33281,-0.89847 2.99235,-1.50212c1.64276,-1.50436 2.97513,-1.54746 2.94688,-1.62106c-0.02966,-0.07725 0.11629,-0.13916 0.4191,-0.17792c0.25538,-0.03275 0.86502,-0.21192 1.3545,-0.39823c1.08724,-0.41356 2.03567,-0.69846 2.59846,-0.7801c0.53775,-0.0778 0.60769,0.06771 0.31127,0.64912c-0.58489,1.1474 -1.66864,2.1563 -3.00844,2.80066c-1.02636,0.49421 -1.49372,0.61562 -3.2631,0.84867z"/><path d="M318.03177,163.53077c-0.78358,0.05611 -1.68122,0.0678 -1.68122,0.02197c0,-0.02442 0.35969,-0.23138 0.79899,-0.45994c0.60784,-0.3163 0.78805,-0.45616 0.75421,-0.58568c-0.03987,-0.15274 0.10006,-0.17729 1.3657,-0.23997c1.50772,-0.07466 2.20595,-0.01763 2.4907,0.20345c0.16853,0.13083 0.16573,0.14784 -0.05674,0.33618c-0.4072,0.34477 -1.5658,0.57328 -3.6717,0.72413z"/><path d="M317.73265,165.90989c-0.97949,0.26349 -7.37977,0.18211 -8.20674,-0.1044c-0.08816,-0.03052 0.81815,-0.02883 1.46364,-0.35304c0.59828,-0.30043 0.57808,-0.80437 0.5961,-0.82067c0.01797,-0.0163 -0.01425,-0.11739 -0.07164,-0.22464c-0.10285,-0.19205 -0.07066,-0.1943 2.19197,-0.14693c1.26355,0.02639 3.03083,0.00258 3.92845,-0.0529c0.95011,-0.05876 1.66972,-0.06422 1.7225,-0.01315c0.15666,0.15112 0.09873,0.67591 -0.09878,0.89414c-0.28687,0.3168 -0.92325,0.65906 -1.52732,0.82137z"/><path d="M312.09378,168.84824c-0.67026,0.15365 -2.03174,0.17169 -3.21413,0.04253c-1.08445,-0.11894 -8.87789,-1.79254 -8.77344,-1.88482c0.04128,-0.0363 -0.05107,-0.51808 1.85474,-0.32988c0.77729,0.07674 2.32419,-0.3468 2.32419,-0.5129c0,-0.07725 0.03056,-0.14048 0.06793,-0.14048c0.41278,0 7.24153,1.02909 7.5491,1.13761c1.01469,0.35822 1.62532,0.89476 1.36919,1.20337c-0.15952,0.19241 -0.48457,0.32667 -1.17259,0.48451z"/><path d="M306.15157,171.29731c-0.35751,0.14378 -0.64506,0.16707 -1.62106,0.1314c-0.65206,-0.02387 -1.49779,-0.11104 -1.87852,-0.19381c-0.51984,-0.11335 -5.15353,-1.94987 -7.41616,-2.94056c-0.13678,-0.05989 -0.06052,-0.07283 0.24725,-0.04212c0.24487,0.02442 1.26355,0.56091 2.13529,0.59385l1.48043,-0.42951l0.19122,-0.48771l2.52149,0.73743c1.38668,0.4053 2.85523,0.80177 3.2631,0.88082c0.84237,0.16302 1.47673,0.53998 1.62665,0.96621c0.12936,0.36773 -0.01028,0.56684 -0.54941,0.7836z"/><path d="M299.14169,173.18603c-0.13642,0.0242 -0.57651,0.02527 -0.97879,0.0021c-0.72062,-0.04197 -0.7675,-0.06157 -3.19734,-1.36639c-1.3566,-0.72797 -2.42909,-1.3445 -2.38366,-1.36989c0.04548,-0.0254 1.37871,0.49851 1.96528,-0.0459l0.90394,-0.83886l1.27683,0.68851c0.70244,0.3792 1.72538,0.91813 2.27382,1.19847c0.54851,0.28035 1.12326,0.6415 1.27753,0.80249c0.2674,0.27909 0.27251,0.30153 0.11033,0.48079c-0.15532,0.17148 -0.6033,0.33246 -1.24815,0.44854z"/><path d="M294.89439,173.74575c-0.33652,0.10221 -1.55109,0.01839 -1.98698,-0.13714c-0.19589,-0.06996 -1.47972,-0.72833 -2.85381,-1.46224l-2.4977,-1.33491l3.33447,-0.19779l1.86803,1.08793c1.89882,1.10542 2.46706,1.53236 2.41306,1.81277c-0.01652,0.08598 -0.14112,0.19002 -0.27677,0.23122z"/><path d="M289.45171,174.5849c-0.27915,0.14505 -0.50822,0.17154 -1.188,0.13734c-1.04176,-0.05247 -1.29993,-0.17632 -2.93567,-1.40628l-1.22437,-0.92072l1.14742,-0.09795c0.62989,-0.05388 0.90425,-1.00678 0.94871,-1.00678c0.11753,0 1.81418,1.03629 2.53898,1.55109c0.66025,0.46946 1.14763,1.08667 1.09215,1.38389c-0.01846,0.09901 -0.18918,0.26082 -0.37942,0.35967z"/><path d="M283.67213,175.49507c-0.64017,0.22738 -1.24359,0.19421 -1.79597,-0.09871c-0.56182,-0.29804 -1.48001,-0.95409 -2.1115,-1.50841l-0.44056,-0.3867l1.47344,0.11321c1.97717,0.15189 1.51402,-1.17167 2.81884,0.10936l1.10684,1.08652l-0.32449,0.2709c-0.17847,0.14902 -0.50526,0.33503 -0.72622,0.41347z"/><path d="M278.17956,177.17376c-0.41488,0.17812 -0.71334,0.19046 -1.21806,0.05032c-0.45336,-0.12593 -0.92213,-0.53453 -1.72181,-1.50143l-0.59657,-0.72132l1.46154,0.0533c1.09564,0.03987 1.58254,-0.94254 1.64486,-0.96339c0.17631,-0.05876 1.12341,1.76938 1.12082,2.16327c-0.00266,0.41279 -0.23696,0.72482 -0.68998,0.91932z"/><path d="M274.13644,178.01307c-0.2481,0.24787 -0.36514,0.2891 -0.82137,0.2891c-0.74302,0 -1.42174,-0.3603 -2.10871,-1.11942l-0.54985,-0.60763c0.54154,0.06283 0.81229,0.39585 1.86313,-0.05051c0.93072,-0.18401 0.93295,-0.60024 1.16419,-0.95922l0.18953,0.3054c0.28524,0.45967 0.55214,1.20917 0.55214,1.55039c0,0.20324 -0.09528,0.39844 -0.28909,0.59225z"/><path d="M270.44241,179.27312c-0.25782,0.18051 -0.3941,0.18833 -0.88784,0.0512c-0.26655,-0.07416 -0.56796,-0.3214 -1.11173,-0.91231c-0.84222,-0.91499 -0.78834,-0.40591 0.38565,-0.60336c0.39431,-0.06633 0.64702,-0.62241 0.64702,-0.68026c0,-0.05808 0.26698,0.26453 0.59328,0.71644c0.63884,0.88427 0.71791,1.18673 0.37355,1.42797z"/><path d="M266.97229,180.32299c-0.33582,0.13552 -0.93786,0.11132 -1.25026,-0.05023c-0.3785,-0.1959 -1.53591,-1.84271 -1.36149,-1.93731c0.06856,-0.03744 0.59406,0.32199 1.12432,0.20039c0.77723,-0.17812 0.95802,-0.68662 1.07744,-0.58748c0.30211,0.25047 0.93961,1.31671 0.93961,1.57138c0,0.31945 -0.24219,0.68648 -0.52975,0.80248z"/><path d="M262.92803,180.95238c-0.7752,0.18469 -1.22366,-0.06927 -1.75748,-0.99489c-0.33365,-0.57889 -0.3669,-0.68564 -0.2257,-0.72483c0.09096,-0.02525 0.80753,0.52599 1.22927,0.22598l0.99418,-0.70734l0.17707,0.23452c0.35766,0.47366 0.62988,1.17749 0.52179,1.3489c-0.16233,0.25796 -0.57761,0.53081 -0.93891,0.61717z"/><path d="M260.12962,181.86126c-0.26936,0.15714 -0.63891,0.11719 -1.10892,-0.11984c-0.34821,-0.17553 -0.50835,-0.34752 -0.75979,-0.81579c-0.17526,-0.32631 -0.32002,-0.6175 -0.32142,-0.64709c-0.00139,-0.02958 0.56164,0.13441 1.03755,-0.02014c0.47583,-0.15455 0.74329,-0.61561 0.80809,-0.64003c0.12448,-0.04687 0.54832,0.71552 0.6636,1.19358c0.08256,0.34212 -0.09222,0.91709 -0.31904,1.04946z"/><path d="M257.61085,182.42161c-0.09087,0.26063 -0.15937,0.31132 -0.42027,0.31098c-0.17644,-0.00021 -0.54698,-0.14194 -0.85426,-0.3268c-0.43629,-0.26305 -0.62471,-0.46602 -0.96201,-1.03825c-0.23073,-0.39139 -0.17729,-0.3634 -0.13762,-0.3655c0.03987,-0.00197 -0.93842,-0.81669 -0.77449,-0.65605c1.59028,1.5588 2.16251,-0.05037 2.43964,-0.16302l0.47877,0.88293c0.36829,0.73105 0.39438,0.88469 0.23039,1.3552z"/><path d="M254.88213,183.68062c-0.17274,0.17295 -0.5548,0.1346 -0.81576,-0.08201c-0.19241,-0.15951 -1.61847,-2.13136 -1.57698,-2.09119c0.24837,0.24067 1.59895,-0.03037 1.42305,-0.54644c-0.02106,-0.06226 0.34703,0.39516 0.62576,0.87805c0.5513,0.95501 0.65829,1.52737 0.34422,1.84144z"/><path d="M252.01375,184.10047c-0.18609,0.29762 -0.28196,0.28392 -1.00328,-0.14259c-0.6373,-0.37711 -0.68326,-0.44987 -0.86825,-1.37479c-0.05745,-0.28685 0.13237,-0.16077 0.69258,-0.33722c0.31728,-0.0999 0.45216,-0.34074 0.51345,-0.36417c0.0613,-0.02379 0.2958,0.29315 0.52122,0.70385c0.42993,0.7829 0.45252,1.0209 0.14441,1.51471z"/><path d="M248.30561,185.01035c-0.34282,0.09809 -0.3764,0.0953 -1.08793,-0.09011c-0.43623,-0.11397 -0.50275,-0.17435 -0.85635,-0.77731c-0.21087,-0.35961 -0.37033,-0.66711 -0.35438,-0.68341c0.0161,-0.01638 1.32932,0.16855 2.07303,-0.27873l0.99489,-0.59868l0.08033,0.35465c0.1833,0.80738 -0.26727,1.90665 -0.84936,2.07303z"/><path d="M240.11971,189.20748c-0.2688,0.1882 -0.56021,0.19903 -0.62765,0.02336c-0.02758,-0.07136 0.24797,-0.70139 0.61226,-1.39927c0.60218,-1.1537 0.66661,-1.33442 0.70872,-1.99116l0.04639,-0.72203l2.08423,-0.69564c1.14672,-0.38263 2.11438,-0.66269 2.15068,-0.62232c0.10977,0.12174 0.58504,1.64064 0.58504,1.86943c0,0.11732 -0.13692,0.32861 -0.30427,0.46938c-0.3729,0.31393 -0.8372,0.33351 -1.3769,0.05821c-0.55334,-0.2823 -0.59834,-0.26167 -0.52928,0.24207c0.0545,0.39753 0.03128,0.46883 -0.24151,0.74161c-0.35452,0.35486 -0.48988,0.36885 -1.00888,0.10404c-0.21319,-0.10873 -0.4228,-0.19782 -0.46574,-0.19792c-0.04295,-0.00008 -0.07808,0.27804 -0.07808,0.61805c0,0.56266 -0.01965,0.62099 -0.21869,0.64933c-0.12026,0.01714 -0.42063,-0.08718 -0.66747,-0.23186l-0.44874,-0.26298v0.59714c0,0.50457 -0.03393,0.6205 -0.21976,0.75072z"/></g></g><path d="M224.44162,194.55268c0.16622,-0.67141 0.6311,-0.89458 1.049,-1.18835c1.21749,-0.56587 1.5597,-0.17612 1.3284,0.83892c-0.4619,0.4121 -0.97099,0.61227 -1.67784,1.11902c-0.15392,0.32185 -0.23774,0.66689 0,1.11902c-0.1044,0.38996 0.13376,0.49451 0.41952,0.55937c0.45271,-0.74115 1.24614,-1.00636 1.76485,-0.95847l1.38144,0.39903c1.59796,0.7208 1.09789,1.93516 -0.49719,1.60426c-0.07427,-0.34605 -0.60618,-0.53179 -1.53069,-0.48524c-0.73846,0.23696 -1.51896,1.82786 -2.02797,1.95795c-0.33882,0.08701 0.48947,1.04899 0.48947,1.04899c1.63144,1.82163 0.09295,2.85344 -0.65329,2.06334l-0.46551,-2.55283c-0.55881,0.02328 -0.45412,-0.76549 -1.67783,0.06988c-0.41026,-0.28888 -1.09921,-0.41506 -3.07624,0.2098c-0.91573,0.27869 -1.62732,-1.59479 0.27969,-1.74785l1.67782,-0.20981l1.88791,0.06989l-0.20981,-1.53849c-0.98251,-0.57012 -1.64458,-1.1679 -3.35635,-1.67783c-1.1841,-0.82194 -0.23626,-1.93248 0.83891,-1.74786c0.93617,0.41946 1.1638,0.83885 1.53849,1.25838c0.6062,0.46111 1.21189,0.97402 1.81787,1.11902z" fill="#aa0000" stroke="#000000" stroke-width="0.5" stroke-linecap="butt"/><path d="M237.32334,199.20738l-2.76856,-0.69222c-1.02849,-0.13016 -0.36775,-2.07395 0.39554,-1.43378c0.8276,0.3425 1.52291,0.8177 2.71905,0.79081c1.40903,-0.7208 1.92895,-2.77633 2.8676,-4.20234c1.89569,-2.42833 2.65608,0.50574 1.28525,1.03838l-1.92823,2.42267c-0.21404,0.44499 -0.83041,0.88986 -0.19777,1.33477l2.86758,-0.09889c1.66086,-0.09662 1.61771,1.77828 0.19777,1.58235c-0.91531,-0.01626 -1.91056,-0.90824 -2.71905,0.2472c-0.65487,0.56433 -1.62618,0.36824 -1.68135,2.37315c-0.91531,2.54291 -2.89943,0.28096 -1.63187,-1.18693l1.18693,-1.82921z" fill="#aa0000" stroke="#000000" stroke-width="0.5" stroke-linecap="butt"/><path d="M250.75707,164.26696c-5.29025,1.46491 -6.55356,7.18454 1.53849,5.59371l-0.69921,1.67784l-1.95794,0.41951l-4.05523,1.39842c-1.0299,2.07677 -2.50967,1.90066 -3.77582,2.79686c-1.38781,1.26969 -2.87077,2.44317 -3.49643,4.47467l0.27969,3.49642l0.55938,1.95793c5.11413,1.9622 10.2537,3.92224 13.56692,6.01316c4.65081,2.46794 1.64741,4.81561 -0.83892,3.77582c1.47696,2.32074 -1.15792,3.43488 -2.59879,1.64388c1.0115,2.3464 -0.40955,3.5141 -1.86739,2.23735c0.92521,1.94068 -0.38552,3.37193 -1.53212,1.74998c-0.15632,-0.21998 -0.13582,1.85007 -0.99382,1.64033c-0.99594,1.48657 -1.46761,0.18079 -2.098,-0.27969c-0.12874,1.88049 -0.76069,0.90903 -1.25838,0.69923c-0.05943,1.55342 -1.46561,-0.30092 -2.25431,-0.08481c-1.19471,5.43803 -3.09607,4.18387 -3.53674,0.56084l-1.20038,-1.59505c-0.74555,1.41002 -1.49179,0.61554 -2.23734,0.27969c-0.52838,1.00889 -1.16571,1.09095 -1.95793,-0.13984c-0.84457,1.80424 -1.82425,0.89246 -2.79686,0.13984l-0.27967,2.23734c-1.0603,2.7745 -1.6985,1.32161 -2.3774,0.27967l-0.97897,-1.39842c-0.76676,0.55287 -1.48825,2.23919 -2.37739,-0.27969c-2.0124,1.33759 -2.91399,0.70948 -3.21632,-0.97897c-2.45895,1.22512 -2.81503,0.11317 -2.93689,-1.25838c-3.6096,0.36004 -3.20139,-1.29161 -2.6568,-2.37739c-2.98926,0.16622 -2.55409,-0.44066 -2.09588,-1.57808c-1.79419,0.78304 -3.50843,-0.42583 -2.23874,-2.47784c-4.15001,-1.26543 -2.3017,-2.88888 -0.83891,-3.21632c0.88419,-1.13953 10.69438,-4.36307 14.82601,-5.03419l-0.27969,-3.35638c-0.46826,-1.2704 -1.92786,-1.83626 -1.25836,-3.91587c-1.42543,-1.29726 -1.35329,-2.96379 0.55938,-5.45367c-1.30915,0.25606 -2.14893,-0.06295 -0.97898,-2.9369c0.00565,-1.20362 -0.86226,1.49845 -1.81788,0.2797c-0.33104,-0.72999 -1.44935,-1.19047 1.53849,-3.91589l-1.67784,-0.97896c-0.19099,-1.29091 0.41877,-2.00059 1.67784,-2.23735c-0.76379,-0.45624 -1.4468,-1.13175 -0.27969,-2.37739c-1.78748,-1.07234 -0.85851,-2.14397 -0.83891,-3.21631c1.77121,0.99149 3.90881,1.40817 6.85208,0.55936c-0.4909,-1.1954 -2.79472,-2.22106 -1.84334,-4.37777c2.6476,1.68843 3.95265,1.77261 6.82661,2.78129c-1.87192,-0.34447 -3.20499,-4.14436 -1.26544,-5.13607c1.11124,1.86739 3.27008,4.08932 5.51166,4.49519c-0.4844,-0.65643 -0.51115,-0.39469 -1.02849,-2.09799c-0.30416,-1.22018 0.30203,-2.12599 1.7033,-2.55847c-0.46899,0.55597 0.02928,1.35526 0.47746,2.69781c1.94805,2.78979 3.04373,2.98996 4.86232,4.48175l-2.09941,-1.54554c-0.78587,-4.75931 1.26969,-3.44083 3.49642,-0.27969c4.38201,2.67378 6.67701,2.65185 6.99213,3.77581c0.92004,0.97896 1.25978,1.95796 1.25836,2.93692z" fill="#c99632" stroke="#000000" stroke-width="0.5" stroke-linecap="butt"/><path d="M245.88224,168.29629c1.32769,-2.76361 2.42902,-3.88121 4.69679,-4.16628c2.83716,0.29149 2.10506,1.40904 2.67378,2.4071c-1.0398,-0.53156 -0.46988,-1.34749 -2.56555,-0.94077c-2.59171,0.06387 -3.19297,1.76766 -3.01895,2.68083c0.16998,0.89054 1.91763,1.60286 3.16963,1.63611c0.75546,-0.19028 1.89781,0.13546 2.1574,-0.71583l0.60182,-0.44499l0.15533,1.04687c-0.71867,0.80071 -1.35033,0.81275 -1.97774,0.79083c-3.02179,0.29108 -5.99477,0.2765 -5.89291,-2.29394z" fill="#aa0000" stroke="#000000" stroke-width="0.5" stroke-linecap="butt"/><g stroke="#000000" stroke-width="0.5" stroke-linecap="butt"><path d="M245.88224,163.34487c-0.4435,-0.37291 -0.53087,-0.55952 -0.40332,-0.93229c0.55118,-0.74625 1.47269,-0.53554 1.89285,0.09416c0.59473,0.72856 0.18101,1.36518 -0.32212,1.5208c-0.63413,0.29008 -1.26545,0.17875 -1.83345,-0.18999c-1.15368,-0.60478 -1.61558,-1.04617 -2.20056,-1.87306c-0.20328,-0.27672 -0.56263,-2.11426 -0.24693,-1.77757c0.11424,0.12195 0.36768,0.5071 0.87429,0.74697c1.15368,0.58433 1.83133,0.58165 2.72116,0.93369c-0.49662,0.01592 -3.05786,-0.73704 -2.8782,-0.27969c0.37222,0.83963 1.38499,1.56183 2.3972,1.75705z" fill="#2c2c6f"/><g fill="none"><path d="M216.9588,190.48721l-8.63672,4.40536"/><path d="M217.92787,192.26406l-7.27154,5.10422"/><path d="M219.06952,193.26353l-6.43261,5.87311"/><path d="M215.39556,201.32942l5.38433,-6.78275"/><path d="M221.72421,196.58594l-3.21632,5.73376"/><path d="M221.90316,204.01734l1.39843,-6.99213"/><path d="M223.95446,203.87586l0.97898,-7.27153"/><path d="M227.63267,203.16853v-8.67208"/><path d="M230.00674,195.47258l0.38459,7.34227"/><path d="M232.51337,202.74413l-0.83891,-6.71274"/><path d="M235.13055,203.09779l-1.08365,-7.48373"/><path d="M239.37465,203.59291l-2.3774,-8.81355"/><path d="M239.05209,197.02024l2.6568,6.57268"/><path d="M240.46679,196.17286l2.6568,6.71273"/><path d="M242.59804,195.73923l3.49642,5.87311"/><path d="M243.66613,194.11376l4.05522,6.01317"/><path d="M249.56044,197.93415l-4.09059,-4.22993"/><path d="M251.96544,195.67063l-6.60733,-4.2653"/></g><path d="M243.12358,174.09654c-0.35637,1.38358 -0.66853,3.74044 -1.72806,4.77247c-2.93196,2.28402 -1.15086,-2.21117 -1.76765,-3.23399c-0.2951,3.86918 -1.85114,6.33288 -3.63577,5.73376c-1.43592,-0.67765 0.04288,-3.59757 0.13985,-5.45365c-0.97896,3.42992 -1.95796,3.93426 -2.93692,4.05522c-1.61275,0.14713 0.07385,-2.78128 -0.06494,-3.99084c-0.79223,3.29554 -2.0796,4.22215 -2.87183,3.43134c-0.85236,-0.37214 -0.25245,-1.92256 -0.13983,-3.07624c-0.66314,0.54672 -1.45006,1.02281 -1.67784,1.81787l-0.69921,2.51746" fill="#c99632"/><path d="M222.32757,176.78444c0.11282,-2.5323 4.61475,-4.04037 4.3014,-5.4883" fill="none"/><path d="M238.95023,180.60413c-0.32574,2.76433 -0.008,6.60097 -2.57122,5.63614l-0.88983,-2.76855c0.46274,3.7546 -1.0589,3.20995 -2.07678,3.75742c-1.21452,-0.77738 -0.92804,-2.30454 -0.59332,-3.85646c-0.3855,2.99421 -1.74362,3.31393 -3.16397,3.46106c-0.4179,-0.97473 -1.66721,-0.93936 -0.39554,-3.36202c1.39348,-4.69962 -0.39782,-2.6759 -1.18693,-2.76856c0.01881,2.00674 -0.67333,2.15388 -1.18693,2.76856c-1.06384,-0.17301 -1.67146,-1.1459 -1.68136,-3.16397c-0.59332,2.37315 -1.00868,2.92701 -0.49444,7.51203" fill="#c99632"/><path d="M226.74029,175.80294c0.47392,-3.72842 6.13694,-4.13514 9.37234,-7.27153c-0.87485,1.77192 -1.78111,3.54309 -0.83892,5.3143c2.04848,-2.23098 4.1295,-4.55802 5.45365,-4.61474l-0.27969,2.6568l3.63576,-1.11902l3.49643,-0.27969" fill="none"/></g><g fill="#c99632" stroke="#000000" stroke-width="0.5"><g stroke-linecap="round"><path d="M207.96841,194.32667c-0.45284,-0.16277 -1.05819,-0.46585 -1.31566,-0.65868c-0.36923,-0.27642 -0.50024,-0.55037 -0.38211,-0.7993c0.14728,-0.31046 0.59156,-0.6226 1.13388,-0.79717c0.24332,-0.07817 0.3688,-0.14104 0.48417,-0.24255c0.38472,-0.33867 1.57102,-0.9125 3.11163,-1.50454l0.42831,-0.16467v0.20738c0,0.69425 0.37545,1.35245 0.98887,1.73301l0.20194,0.12527l-0.27183,0.145c-0.14954,0.07979 -0.93229,0.48043 -1.74008,0.89056c-0.8078,0.40998 -1.65731,0.84458 -1.8879,0.96553l-0.41952,0.21991z"/><path d="M209.24164,197.15607c-0.38035,-0.08029 -0.69285,-0.30301 -0.81629,-0.58171c-0.15152,-0.3425 -0.11373,-0.71798 0.12224,-1.21523l0.14593,-0.30712l2.01028,-1.02706c1.10559,-0.56503 2.01877,-1.02777 2.02867,-1.02848c0.0102,-0.00044 0.02207,0.07901 0.02632,0.17656c0.0225,0.51544 0.39597,0.86438 1.19116,1.11337l0.29227,0.09139l-1.81293,1.27322c-0.99736,0.70005 -1.89145,1.30366 -1.98764,1.34114c-0.4133,0.16155 -0.89834,0.2279 -1.19966,0.16424z"/><path d="M211.22221,198.57077c-0.26653,-0.03459 -0.44089,-0.08891 -0.49515,-0.15427c-0.03106,-0.03735 -0.01372,-0.12626 0.0759,-0.38989l0.11608,-0.34145l3.83736,-2.69499l0.12152,0.11487c0.22678,0.21426 0.51509,0.32071 0.95987,0.35431l0.26872,0.02031l-3.36909,3.07625l-0.27982,0.02341c-0.37143,0.03112 -0.96128,0.02703 -1.23502,-0.00863z"/><path d="M213.62719,200.90501c-0.41846,-0.08332 -0.69744,-0.24714 -0.81982,-0.48157c-0.13086,-0.25054 0.00496,-0.96907 0.22415,-1.18481c0.20845,-0.20549 3.62729,-3.31463 3.64355,-3.31322c0.00955,0.00064 0.08043,0.10441 0.15731,0.23053c0.07689,0.12613 0.21348,0.29609 0.30345,0.37772c0.20096,0.18229 0.57203,0.38047 0.84528,0.45129c0.11247,0.02914 0.21077,0.05948 0.21863,0.06728c0.00786,0.00786 -0.68088,0.88983 -1.53069,1.96005l-1.54486,1.94593l-0.63173,-0.00354c-0.37164,-0.00211 -0.72786,-0.02242 -0.86579,-0.0498z"/><path d="M216.31511,202.67339c-0.26031,-0.12238 -0.43354,-0.46599 -0.50985,-1.0115l-0.04137,-0.29588l3.0324,-3.81896l0.08503,0.11333c0.31208,0.41577 0.7505,0.69984 1.15086,0.74482c0.13992,0.01576 0.21482,0.03904 0.20513,0.06375c-0.00842,0.02142 -0.47216,0.85305 -1.03062,1.84758c-0.55838,0.99453 -1.0207,1.83345 -1.02635,1.86386c-0.01316,0.0633 -0.4754,0.28061 -0.88701,0.41699c-0.34236,0.11347 -0.8198,0.15095 -0.97754,0.07675z"/><path d="M219.49817,203.87586c-0.2927,-0.09011 -0.55173,-0.44995 -0.69425,-0.96411c-0.08453,-0.30494 -0.08984,-0.39443 -0.022,-0.36839c0.03493,0.01343 0.34186,-0.50476 1.07517,-1.81505l1.02636,-1.83344l0.08743,0.1141c0.45307,0.59134 0.8849,0.7717 1.3673,0.57124c0.04577,-0.01904 -0.00919,0.3043 -0.29312,1.72452l-0.3495,1.74785l-0.42618,0.26398c-0.50675,0.31392 -0.81132,0.45687 -1.16642,0.5477c-0.30565,0.07817 -0.38622,0.07986 -0.60473,0.0125z"/><path d="M222.39829,204.37102c-0.22352,-0.23589 -0.24113,-0.05829 0.24737,-2.50118c0.24304,-1.21522 0.44514,-2.21328 0.44903,-2.21753c0.00423,-0.00423 0.10857,0.03396 0.23264,0.0846c0.17572,0.07173 0.28789,0.09273 0.50745,0.09493c0.26186,0.00284 0.28102,0.00778 0.26978,0.0728c-0.00707,0.03849 -0.12061,0.87851 -0.25316,1.86597c-0.13255,0.98816 -0.25401,1.80728 -0.26978,1.82142c-0.01576,0.01372 -0.22897,0.21624 -0.47364,0.45002c-0.48865,0.46685 -0.55144,0.49591 -0.70946,0.32891z"/><path d="M225.93504,206.06864c-0.08552,-0.0788 -0.26936,-0.31915 -0.40857,-0.53419c-0.13921,-0.21504 -0.46467,-0.69447 -0.72292,-1.06527l-0.46997,-0.67459l0.2666,-1.9827c0.14664,-1.09002 0.26653,-2.0018 0.2664,-2.02584c-0.00016,-0.03119 0.07725,-0.04371 0.2707,-0.04386c0.53708,-0.00038 0.90613,-0.16848 1.66084,-0.75615c0.20675,-0.16099 0.38374,-0.29278 0.39329,-0.29278c0.00955,0 0.01732,0.87429 0.01732,1.94309v1.94308l-0.1419,1.14167c-0.13143,1.05818 -0.15079,1.16359 -0.26426,1.43875c-0.21398,0.51961 -0.46983,0.92168 -0.64715,1.01646c-0.05256,0.02817 -0.09415,0.00757 -0.2202,-0.10858z"/><path d="M228.97664,203.16853c-0.17621,-0.06543 -0.44958,-0.23263 -0.7512,-0.45963l-0.26264,-0.1977v-3.6973l0.16608,0.11727c0.20216,0.14282 0.35537,0.19722 0.55548,0.19722c0.26511,0 0.6555,-0.19197 0.94714,-0.46592c0.06217,-0.05842 0.11998,-0.09932 0.12839,-0.09091c0.00842,0.00842 0.06211,0.89623 0.1194,1.97281l0.10406,1.95793l-0.10385,0.1748c-0.28132,0.47351 -0.553,0.6214 -0.90328,0.4916z"/><path d="M231.31089,203.02706c-0.14981,-0.0928 -0.26003,-0.20308 -0.4353,-0.4353l-0.15356,-0.20343l-0.07972,-1.47482c-0.04385,-0.81134 -0.08048,-1.54908 -0.08141,-1.64105l-0.00142,-0.16609l0.18356,-0.00071c0.24369,-0.00071 0.43417,-0.09251 0.67191,-0.32282c0.1733,-0.16786 0.19679,-0.18081 0.21064,-0.11616c0.00863,0.04004 0.11792,0.89834 0.24291,1.90702l0.22727,1.83416l-0.15894,0.255c-0.16494,0.26469 -0.33931,0.42951 -0.45418,0.42922c-0.03664,-0.00008 -0.11383,-0.02937 -0.17154,-0.06516z"/><path d="M233.43293,202.81486c-0.02886,-0.00913 -0.17493,-0.07422 -0.32461,-0.14473c-0.18534,-0.0873 -0.27706,-0.15087 -0.28746,-0.19925c-0.00842,-0.03912 -0.11841,-0.91248 -0.24446,-1.94166c-0.12605,-1.02849 -0.23746,-1.90772 -0.2475,-1.9537c-0.014,-0.06359 -0.00638,-0.07838 0.03416,-0.06297c0.3447,0.13226 1.19896,0.1791 1.51585,0.08306c0.10094,-0.03055 0.18505,-0.05257 0.18696,-0.04875c0.03247,0.06515 0.46401,3.21348 0.44337,3.2347c-0.01606,0.01612 -0.1364,0.20894 -0.26725,0.42857c-0.32099,0.53865 -0.52748,0.693 -0.80849,0.60451z"/></g><path d="M237.18187,206.70526c-0.40983,-0.2499 -0.82053,-1.29233 -0.99312,-2.51958l-0.04174,-0.29715l-0.65591,-0.88207l-0.31768,-2.19279c-0.17471,-1.20603 -0.31166,-2.19843 -0.3043,-2.20621c0.00736,-0.00736 0.13658,0.02575 0.28719,0.07358c0.73917,0.2347 1.51444,0.19112 2.20976,-0.12415c0.1576,-0.07145 0.23053,-0.08976 0.24027,-0.06034c0.00778,0.02319 0.3128,1.15228 0.67794,2.50896l0.66384,2.46652l-0.11523,0.45257c-0.31229,1.22654 -0.69093,2.14538 -1.05396,2.55989c-0.25231,0.28768 -0.39795,0.34143 -0.59679,0.22019z" stroke-linecap="butt"/><path d="M240.86007,203.66365c-0.14423,-0.07625 -0.41231,-0.21892 -0.5958,-0.3171c-0.18348,-0.09819 -0.41831,-0.20019 -0.52188,-0.22671l-0.1883,-0.04818l-0.55214,-2.04211c-0.30373,-1.12327 -0.55268,-2.04352 -0.55316,-2.04636c-0.00054,-0.00211 0.08163,-0.0152 0.18257,-0.02857c0.10094,-0.01337 0.29306,-0.07032 0.42681,-0.12653c0.13377,-0.05623 0.25359,-0.09054 0.26611,-0.07633c0.01253,0.0143 0.43402,1.04476 0.93653,2.28969c0.57337,1.42034 0.91317,2.30595 0.91175,2.37739c-0.00142,0.0626 -0.01287,0.17443 -0.02624,0.24856l-0.02419,0.13467l-0.2622,-0.13858z" stroke-linecap="butt"/><path d="M242.13329,203.45147c-0.1071,-0.07343 -0.19105,-0.26427 -1.05677,-2.40356c-0.51729,-1.27819 -0.94928,-2.35193 -0.96059,-2.38518c-0.01541,-0.04753 0.00019,-0.06111 0.06955,-0.06111c0.12937,0 0.41133,-0.11461 0.55894,-0.2272c0.0701,-0.05347 0.13255,-0.09111 0.13871,-0.08361c0.00637,0.00751 0.36867,0.91813 0.80567,2.02372l0.79435,2.01028l-0.05433,0.48949c-0.05822,0.52463 -0.09188,0.6881 -0.14534,0.70593c-0.01854,0.00636 -0.08607,-0.02463 -0.15009,-0.06847z" stroke-linecap="butt"/><path d="M243.83094,203.30999c-0.0938,-0.07413 -0.23683,-0.21007 -0.31775,-0.30203c-0.11939,-0.13568 -0.13828,-0.17458 -0.09979,-0.20606c0.03869,-0.0317 -0.12061,-0.46225 -0.86864,-2.34627l-0.91601,-2.30736l0.20641,-0.04315c0.37235,-0.0778 0.64941,-0.2332 1.02071,-0.57225c0.10858,-0.09924 0.20505,-0.17287 0.21431,-0.16361c0.00919,0.00928 0.55704,0.9245 1.21734,2.03362l1.20038,2.01665l-0.09748,0.42703c-0.10539,0.46176 -0.17981,0.69532 -0.26137,0.81981c-0.04259,0.06501 -0.08469,0.07965 -0.23464,0.08141l-0.18277,0.00212l-0.1748,0.24432c-0.16792,0.2347 -0.40424,0.45065 -0.49315,0.45065c-0.02328,0 -0.11912,-0.06062 -0.21291,-0.13482z" stroke-linecap="butt"/><path d="M246.66032,201.68308c-0.08778,-0.05568 -0.1987,-0.154 -0.24657,-0.2185c-0.12124,-0.16354 -2.33424,-3.89324 -2.33424,-3.93356c0,-0.01825 0.06883,-0.08169 0.15293,-0.14098c0.08409,-0.05928 0.27629,-0.25896 0.42711,-0.44365c0.21312,-0.26115 0.28308,-0.32614 0.31426,-0.29227c0.02206,0.02398 0.50137,0.72787 1.06527,1.56465c1.09993,1.63116 1.21098,1.83345 1.31567,2.3866c0.08544,0.45277 0.01698,0.85023 -0.18313,1.06243c-0.14302,0.15166 -0.28966,0.15633 -0.51058,0.01627z" stroke-linecap="butt"/><path d="M248.28723,199.84398c-0.08651,-0.02893 -0.24064,-0.11063 -0.34236,-0.18137c-0.16494,-0.11465 -0.2985,-0.2978 -1.22795,-1.68277l-1.04263,-1.55404l0.14415,-0.09182c0.19692,-0.12547 0.36486,-0.31986 0.57883,-0.67006l0.18065,-0.29568l0.51629,0.5272c1.21381,1.23927 1.93742,2.0011 1.97846,2.08314c0.09924,0.19735 0.17606,0.61672 0.17606,0.96128c0,0.39817 -0.0447,0.5608 -0.2042,0.74273c-0.19055,0.21702 -0.43622,0.26957 -0.75758,0.16198z" stroke-linecap="butt"/><path d="M250.55074,197.93415c-0.25054,-0.07703 -0.58065,-0.28442 -0.79575,-0.49981c-0.10575,-0.10603 -0.21744,-0.19346 -0.24814,-0.19439c-0.04732,-0.00142 -2.30383,-2.29109 -2.30383,-2.33778c0,-0.00892 0.04025,-0.02632 0.08949,-0.0387c0.14296,-0.03587 0.38479,-0.28463 0.47081,-0.48409c0.0551,-0.12796 0.08515,-0.28513 0.1001,-0.52428l0.02142,-0.34158l3.56575,2.3003l0.18376,0.32751c0.22014,0.3923 0.32326,0.70219 0.32284,0.96906c-0.00065,0.37616 -0.23541,0.70501 -0.5895,0.82547c-0.19502,0.06649 -0.597,0.06521 -0.81698,-0.00284v0.00001z" stroke-linecap="butt"/><path d="M252.74352,195.67063c-0.17953,-0.03418 -0.59432,-0.16403 -0.59432,-0.18603c0,-0.01258 0.01791,-0.04081 0.03983,-0.06268c0.04344,-0.04344 0.07717,-0.02066 -2.33992,-1.58022l-1.37366,-0.8863l0.18517,-0.10108c0.50144,-0.2736 0.79718,-0.79506 0.79718,-1.40479c-0.00007,-0.09833 -0.02447,-0.31824 -0.05433,-0.48864c-0.02978,-0.1704 -0.04655,-0.3176 -0.03708,-0.327c0.04605,-0.04605 1.84618,0.89621 2.82798,1.48048c0.31208,0.18568 0.72149,0.42943 0.91037,0.54167c0.75686,0.45086 1.34255,0.98109 1.57739,1.42741c0.11226,0.21383 0.13941,0.30473 0.15129,0.50675c0.0135,0.22961 0.00638,0.25918 -0.10184,0.4385c-0.08219,0.13581 -0.18087,0.23554 -0.33615,0.33959c-0.32382,0.21702 -0.60138,0.29279 -1.12609,0.30734c-0.24035,0.00707 -0.47632,0.00495 -0.52442,-0.00424z" stroke-linecap="butt"/></g><g fill="#aa0000" stroke="#000000" stroke-width="0.5" stroke-linecap="butt"><path d="M222.97814,193.24781c0.60602,-0.14505 1.21177,-0.65794 1.81837,-1.11871c0.37473,-0.41958 0.60231,-0.83887 1.5385,-1.25865c1.07534,-0.18464 2.02265,0.92562 0.83887,1.74839c-1.71203,0.50997 -2.37387,1.10752 -3.35617,1.67843l-0.20974,1.53851l1.88762,-0.0699l1.67843,0.20975c1.90721,0.15308 1.19568,2.02686 0.27971,1.7484c-1.97717,-0.62492 -2.66633,-0.4987 -3.07701,-0.20975c-1.22367,-0.83536 -1.11871,-0.04658 -1.67843,-0.06988l-0.46555,2.55298c-0.74651,0.78988 -2.28501,-0.24172 -0.65332,-2.06323c0,0 0.82837,-0.962 0.48947,-1.04876c-0.50905,-0.13005 -1.28944,-1.7211 -2.02755,-1.95758c-0.92422,-0.04652 -1.45664,0.13916 -1.5308,0.4852c-1.59517,0.33093 -2.0954,-0.88366 -0.49723,-1.60428l1.38179,-0.39907c0.51871,-0.04792 1.31182,0.21732 1.76519,0.95851c0.28572,-0.06485 0.52388,-0.1694 0.41957,-0.55944c0.23773,-0.45218 0.15392,-0.79689 0,-1.11871c-0.70663,-0.50675 -1.21597,-0.70664 -1.67844,-1.11872c-0.2313,-1.01517 0.11096,-1.40487 1.32862,-0.83886c0.41797,0.29378 0.88295,0.51696 1.04874,1.18869z"/><path d="M243.09453,196.88222l1.18659,1.82953c1.26844,1.46756 -0.71643,3.72978 -1.63155,1.18659c-0.05457,-2.00489 -1.02638,-1.80883 -1.68123,-2.37317c-0.80877,-1.15607 -1.80435,-0.26349 -2.71949,-0.24725c-1.41977,0.19661 -1.46316,-1.67849 0.19778,-1.58188l2.86781,0.09885c0.63269,-0.44496 0.01631,-0.88995 -0.19778,-1.33491l-1.92819,-2.42283c-1.37059,-0.5325 -0.61079,-3.46671 1.28523,-1.03826c0.9389,1.42657 1.45874,3.48209 2.86781,4.20273c1.19707,0.02659 1.89182,-0.44881 2.71949,-0.79129c0.76336,-0.64017 1.42403,1.30336 0.39556,1.43357l-2.76917,0.69222z"/></g></g><path d="M341.1701,166.24433h51.64699l-41.7776,30.3609l15.97502,-49.13782l15.97502,49.13782z" fill="#feff01" stroke="none" stroke-width="1" stroke-linecap="butt"/><path d="M339.59488,98.87276h51.64699l-41.7776,30.3609l15.97502,-49.13782l15.97502,49.13782z" fill="#feff01" stroke="none" stroke-width="1" stroke-linecap="butt"/><path d="M341.31357,231.27038h51.64699l-41.7776,30.3609l15.97502,-49.13782l15.97502,49.13782z" fill="#feff01" stroke="none" stroke-width="1" stroke-linecap="butt"/></g></g></svg>