<svg id="svg" version="1.1" xmlns="http://www.w3.org/2000/svg" xmlns:xlink="http://www.w3.org/1999/xlink" width="400" height="740.0180668473351" viewBox="0, 0, 400,740.0180668473351"><g id="svgg"><path id="path0" d="M4.336 179.042 L 4.336 358.085 200.000 358.085 L 395.664 358.085 395.664 179.042 L 395.664 0.000 200.000 0.000 L 4.336 0.000 4.336 179.042 M3.975 442.999 L 3.975 453.839 199.819 453.839 L 395.664 453.839 395.664 442.999 L 395.664 432.159 199.819 432.159 L 3.975 432.159 3.975 442.999 M4.336 719.783 L 4.336 740.018 200.000 740.018 L 395.664 740.018 395.664 719.783 L 395.664 699.548 200.000 699.548 L 4.336 699.548 4.336 719.783 " stroke="none" fill="#c4ecf4" fill-rule="evenodd"></path><path id="path1" d="M4.154 179.042 C 4.154 277.615,4.195 317.886,4.246 268.534 C 4.296 219.182,4.296 138.531,4.246 89.311 C 4.195 40.091,4.154 80.470,4.154 179.042 M395.843 179.042 C 395.843 277.615,395.884 317.886,395.935 268.534 C 395.985 219.182,395.985 138.531,395.935 89.311 C 395.884 40.091,395.843 80.470,395.843 179.042 M0.000 395.122 L 0.000 403.252 200.000 403.252 L 400.000 403.252 400.000 395.122 L 400.000 386.992 200.000 386.992 L 0.000 386.992 0.000 395.122 M395.824 442.999 C 395.824 449.061,395.874 451.540,395.934 448.509 C 395.995 445.479,395.995 440.519,395.934 437.489 C 395.874 434.458,395.824 436.938,395.824 442.999 M0.000 578.500 L 0.000 612.827 200.000 612.827 L 400.000 612.827 400.000 578.500 L 400.000 544.173 200.000 544.173 L 0.000 544.173 0.000 578.500 M4.144 719.783 C 4.144 731.012,4.189 735.605,4.245 729.991 C 4.301 724.377,4.301 715.190,4.245 709.575 C 4.189 703.961,4.144 708.555,4.144 719.783 M395.833 719.783 C 395.833 731.012,395.879 735.605,395.935 729.991 C 395.991 724.377,395.991 715.190,395.935 709.575 C 395.879 703.961,395.833 708.555,395.833 719.783 " stroke="none" fill="#5c8cac" fill-rule="evenodd"></path><path id="path2" d="M0.000 372.538 L 0.000 386.992 200.000 386.992 L 400.000 386.992 400.000 372.538 L 400.000 358.085 200.000 358.085 L 0.000 358.085 0.000 372.538 M0.000 417.706 L 0.000 432.159 200.000 432.159 L 400.000 432.159 400.000 417.706 L 400.000 403.252 200.000 403.252 L 0.000 403.252 0.000 417.706 M0.000 499.006 L 0.000 544.173 200.000 544.173 L 400.000 544.173 400.000 499.006 L 400.000 453.839 200.000 453.839 L 0.000 453.839 0.000 499.006 M0.000 656.188 L 0.000 699.548 200.000 699.548 L 400.000 699.548 400.000 656.188 L 400.000 612.827 200.000 612.827 L 0.000 612.827 0.000 656.188 " stroke="none" fill="#041c2c" fill-rule="evenodd"></path></g></svg>