<?xml version="1.0" encoding="UTF-8" standalone="no"?>
<!-- Created with Inkscape (http://www.inkscape.org/) -->

<svg
   width="800"
   height="287.85278"
   viewBox="0 0 211.66666 76.161049"
   version="1.1"
   id="svg5"
   xml:space="preserve"
   xmlns="http://www.w3.org/2000/svg"
   xmlns:svg="http://www.w3.org/2000/svg"
   xmlns:rdf="http://www.w3.org/1999/02/22-rdf-syntax-ns#"
   xmlns:cc="http://creativecommons.org/ns#"
   xmlns:dc="http://purl.org/dc/elements/1.1/"><title
     id="title17847">General (Bangladesh) - জেনারেল</title><defs
     id="defs2" /><g
     id="layer1"
     transform="translate(30.793827,-105.93575)"><g
       id="g17706"><rect
         style="fill:#cc0000;fill-opacity:1;fill-rule:evenodd;stroke-width:0.266559"
         id="rect868"
         width="211.66667"
         height="76.161049"
         x="-30.793827"
         y="105.93575" /><g
         id="g16844"
         transform="matrix(0.80395517,0,0,0.80395517,-6.0369698,20.768156)"><g
           id="g15551"
           transform="translate(-174.8,-0.01539917)"><path
             id="path15529"
             style="display:inline;fill:#c29b00;fill-opacity:1;stroke-width:0.679881;stroke-linecap:square"
             d="m 186.92409,128.88166 -7.96561,16.05201 -17.72789,2.61541 12.80487,12.53609 -2.99083,17.66843 15.87946,-8.30429 15.87945,8.30429 -2.9908,-17.66843 12.80484,-12.53609 -17.72786,-2.61541 z" /><path
             style="fill:#c29b00;fill-opacity:1;stroke:none;stroke-width:1.4;stroke-linecap:square"
             d="m 186.92409,128.88166 -7.96561,16.05201 7.96561,12.21967 z"
             id="path15531" /><path
             style="fill:#c29b00;fill-opacity:1;stroke:none;stroke-width:1.4;stroke-linecap:square"
             d="m 186.9241,157.15334 25.69347,-9.60426 -12.80483,12.53609 z"
             id="path15533" /><path
             style="fill:#ffd013;fill-opacity:1;stroke:none;stroke-width:1.4;stroke-linecap:square"
             d="m 186.9241,157.15334 15.87944,20.60026 -2.9908,-17.66843 z"
             id="path15535" /><path
             style="fill:#c29b00;fill-opacity:1;stroke:none;stroke-width:1.4;stroke-linecap:square"
             d="m 186.9241,157.15334 15.87944,20.60026 -15.87945,-8.30429 z"
             id="path15537" /><path
             style="fill:#ffdd52;fill-opacity:1;stroke:none;stroke-width:1.4;stroke-linecap:square"
             d="m 161.23058,147.54908 25.69352,9.60426 -7.96562,-12.21967 z"
             id="path15539" /><path
             style="fill:#ffdd52;fill-opacity:1;stroke:none;stroke-width:1.4;stroke-linecap:square"
             d="m 212.61761,147.54908 -25.69352,9.60426 7.96562,-12.21967 z"
             id="path15541" /><path
             style="fill:#c29b00;fill-opacity:1;stroke:none;stroke-width:1.4;stroke-linecap:square"
             d="m 186.92409,157.15334 -25.69347,-9.60426 12.80483,12.53609 z"
             id="path15543" /><path
             style="fill:#d2a700;fill-opacity:1;stroke:none;stroke-width:1.4;stroke-linecap:square"
             d="m 186.92409,157.15334 -15.87944,20.60026 2.9908,-17.66843 z"
             id="path15545" /><path
             style="fill:#ffd013;fill-opacity:1;stroke:none;stroke-width:1.4;stroke-linecap:square"
             d="m 186.92408,157.15334 -15.87944,20.60026 15.87945,-8.30429 z"
             id="path15547" /><path
             style="fill:#ffd013;fill-opacity:1;stroke:none;stroke-width:1.4;stroke-linecap:square"
             d="m 186.92409,128.88166 7.96561,16.05201 -7.96561,12.21967 z"
             id="path15549" /></g><g
           id="g15575"
           transform="translate(-115.65139,-0.01539917)"><path
             id="path15553"
             style="display:inline;fill:#c29b00;fill-opacity:1;stroke-width:0.679881;stroke-linecap:square"
             d="m 186.92409,128.88166 -7.96561,16.05201 -17.72789,2.61541 12.80487,12.53609 -2.99083,17.66843 15.87946,-8.30429 15.87945,8.30429 -2.9908,-17.66843 12.80484,-12.53609 -17.72786,-2.61541 z" /><path
             style="fill:#c29b00;fill-opacity:1;stroke:none;stroke-width:1.4;stroke-linecap:square"
             d="m 186.92409,128.88166 -7.96561,16.05201 7.96561,12.21967 z"
             id="path15555" /><path
             style="fill:#c29b00;fill-opacity:1;stroke:none;stroke-width:1.4;stroke-linecap:square"
             d="m 186.9241,157.15334 25.69347,-9.60426 -12.80483,12.53609 z"
             id="path15557" /><path
             style="fill:#ffd013;fill-opacity:1;stroke:none;stroke-width:1.4;stroke-linecap:square"
             d="m 186.9241,157.15334 15.87944,20.60026 -2.9908,-17.66843 z"
             id="path15559" /><path
             style="fill:#c29b00;fill-opacity:1;stroke:none;stroke-width:1.4;stroke-linecap:square"
             d="m 186.9241,157.15334 15.87944,20.60026 -15.87945,-8.30429 z"
             id="path15561" /><path
             style="fill:#ffdd52;fill-opacity:1;stroke:none;stroke-width:1.4;stroke-linecap:square"
             d="m 161.23058,147.54908 25.69352,9.60426 -7.96562,-12.21967 z"
             id="path15563" /><path
             style="fill:#ffdd52;fill-opacity:1;stroke:none;stroke-width:1.4;stroke-linecap:square"
             d="m 212.61761,147.54908 -25.69352,9.60426 7.96562,-12.21967 z"
             id="path15565" /><path
             style="fill:#c29b00;fill-opacity:1;stroke:none;stroke-width:1.4;stroke-linecap:square"
             d="m 186.92409,157.15334 -25.69347,-9.60426 12.80483,12.53609 z"
             id="path15567" /><path
             style="fill:#d2a700;fill-opacity:1;stroke:none;stroke-width:1.4;stroke-linecap:square"
             d="m 186.92409,157.15334 -15.87944,20.60026 2.9908,-17.66843 z"
             id="path15569" /><path
             style="fill:#ffd013;fill-opacity:1;stroke:none;stroke-width:1.4;stroke-linecap:square"
             d="m 186.92408,157.15334 -15.87944,20.60026 15.87945,-8.30429 z"
             id="path15571" /><path
             style="fill:#ffd013;fill-opacity:1;stroke:none;stroke-width:1.4;stroke-linecap:square"
             d="m 186.92409,128.88166 7.96561,16.05201 -7.96561,12.21967 z"
             id="path15573" /></g><g
           id="g15430"
           transform="translate(2.6458388,-0.01539917)"><path
             id="path486"
             style="display:inline;fill:#c29b00;fill-opacity:1;stroke-width:0.679881;stroke-linecap:square"
             d="m 186.92409,128.88166 -7.96561,16.05201 -17.72789,2.61541 12.80487,12.53609 -2.99083,17.66843 15.87946,-8.30429 15.87945,8.30429 -2.9908,-17.66843 12.80484,-12.53609 -17.72786,-2.61541 z" /><path
             style="fill:#c29b00;fill-opacity:1;stroke:none;stroke-width:1.4;stroke-linecap:square"
             d="m 186.92409,128.88166 -7.96561,16.05201 7.96561,12.21967 z"
             id="path1323" /><path
             style="fill:#c29b00;fill-opacity:1;stroke:none;stroke-width:1.4;stroke-linecap:square"
             d="m 186.9241,157.15334 25.69347,-9.60426 -12.80483,12.53609 z"
             id="path1335" /><path
             style="fill:#ffd013;fill-opacity:1;stroke:none;stroke-width:1.4;stroke-linecap:square"
             d="m 186.9241,157.15334 15.87944,20.60026 -2.9908,-17.66843 z"
             id="path1337" /><path
             style="fill:#c29b00;fill-opacity:1;stroke:none;stroke-width:1.4;stroke-linecap:square"
             d="m 186.9241,157.15334 15.87944,20.60026 -15.87945,-8.30429 z"
             id="path1339" /><path
             style="fill:#ffdd52;fill-opacity:1;stroke:none;stroke-width:1.4;stroke-linecap:square"
             d="m 161.23058,147.54908 25.69352,9.60426 -7.96562,-12.21967 z"
             id="path1341" /><path
             style="fill:#ffdd52;fill-opacity:1;stroke:none;stroke-width:1.4;stroke-linecap:square"
             d="m 212.61761,147.54908 -25.69352,9.60426 7.96562,-12.21967 z"
             id="path2485" /><path
             style="fill:#c29b00;fill-opacity:1;stroke:none;stroke-width:1.4;stroke-linecap:square"
             d="m 186.92409,157.15334 -25.69347,-9.60426 12.80483,12.53609 z"
             id="path6200" /><path
             style="fill:#d2a700;fill-opacity:1;stroke:none;stroke-width:1.4;stroke-linecap:square"
             d="m 186.92409,157.15334 -15.87944,20.60026 2.9908,-17.66843 z"
             id="path6204" /><path
             style="fill:#ffd013;fill-opacity:1;stroke:none;stroke-width:1.4;stroke-linecap:square"
             d="m 186.92408,157.15334 -15.87944,20.60026 15.87945,-8.30429 z"
             id="path6423" /><path
             style="fill:#ffd013;fill-opacity:1;stroke:none;stroke-width:1.4;stroke-linecap:square"
             d="m 186.92409,128.88166 7.96561,16.05201 -7.96561,12.21967 z"
             id="path8616" /></g><g
           id="g15599"
           transform="translate(-56.502774,-0.01539917)"><path
             id="path15577"
             style="display:inline;fill:#c29b00;fill-opacity:1;stroke-width:0.679881;stroke-linecap:square"
             d="m 186.92409,128.88166 -7.96561,16.05201 -17.72789,2.61541 12.80487,12.53609 -2.99083,17.66843 15.87946,-8.30429 15.87945,8.30429 -2.9908,-17.66843 12.80484,-12.53609 -17.72786,-2.61541 z" /><path
             style="fill:#c29b00;fill-opacity:1;stroke:none;stroke-width:1.4;stroke-linecap:square"
             d="m 186.92409,128.88166 -7.96561,16.05201 7.96561,12.21967 z"
             id="path15579" /><path
             style="fill:#c29b00;fill-opacity:1;stroke:none;stroke-width:1.4;stroke-linecap:square"
             d="m 186.9241,157.15334 25.69347,-9.60426 -12.80483,12.53609 z"
             id="path15581" /><path
             style="fill:#ffd013;fill-opacity:1;stroke:none;stroke-width:1.4;stroke-linecap:square"
             d="m 186.9241,157.15334 15.87944,20.60026 -2.9908,-17.66843 z"
             id="path15583" /><path
             style="fill:#c29b00;fill-opacity:1;stroke:none;stroke-width:1.4;stroke-linecap:square"
             d="m 186.9241,157.15334 15.87944,20.60026 -15.87945,-8.30429 z"
             id="path15585" /><path
             style="fill:#ffdd52;fill-opacity:1;stroke:none;stroke-width:1.4;stroke-linecap:square"
             d="m 161.23058,147.54908 25.69352,9.60426 -7.96562,-12.21967 z"
             id="path15587" /><path
             style="fill:#ffdd52;fill-opacity:1;stroke:none;stroke-width:1.4;stroke-linecap:square"
             d="m 212.61761,147.54908 -25.69352,9.60426 7.96562,-12.21967 z"
             id="path15589" /><path
             style="fill:#c29b00;fill-opacity:1;stroke:none;stroke-width:1.4;stroke-linecap:square"
             d="m 186.92409,157.15334 -25.69347,-9.60426 12.80483,12.53609 z"
             id="path15591" /><path
             style="fill:#d2a700;fill-opacity:1;stroke:none;stroke-width:1.4;stroke-linecap:square"
             d="m 186.92409,157.15334 -15.87944,20.60026 2.9908,-17.66843 z"
             id="path15593" /><path
             style="fill:#ffd013;fill-opacity:1;stroke:none;stroke-width:1.4;stroke-linecap:square"
             d="m 186.92408,157.15334 -15.87944,20.60026 15.87945,-8.30429 z"
             id="path15595" /><path
             style="fill:#ffd013;fill-opacity:1;stroke:none;stroke-width:1.4;stroke-linecap:square"
             d="m 186.92409,128.88166 7.96561,16.05201 -7.96561,12.21967 z"
             id="path15597" /></g></g></g><g
       id="g17106"
       transform="matrix(0.80395517,0,0,0.80395517,-6.0369706,54.845892)"><rect
         style="fill:#cc0000;fill-opacity:1;fill-rule:evenodd;stroke-width:0.33156"
         id="rect15769"
         width="263.28168"
         height="94.732956"
         x="-30.793823"
         y="218.64825" /><g
         id="g17066"><g
           id="g15793"
           transform="translate(-14.291934,112.6971)"><path
             id="path15771"
             style="display:inline;fill:#c29b00;fill-opacity:1;stroke-width:0.679881;stroke-linecap:square"
             d="m 186.92409,128.88166 -7.96561,16.05201 -17.72789,2.61541 12.80487,12.53609 -2.99083,17.66843 15.87946,-8.30429 15.87945,8.30429 -2.9908,-17.66843 12.80484,-12.53609 -17.72786,-2.61541 z" /><path
             style="fill:#c29b00;fill-opacity:1;stroke:none;stroke-width:1.4;stroke-linecap:square"
             d="m 186.92409,128.88166 -7.96561,16.05201 7.96561,12.21967 z"
             id="path15773" /><path
             style="fill:#c29b00;fill-opacity:1;stroke:none;stroke-width:1.4;stroke-linecap:square"
             d="m 186.9241,157.15334 25.69347,-9.60426 -12.80483,12.53609 z"
             id="path15775" /><path
             style="fill:#ffd013;fill-opacity:1;stroke:none;stroke-width:1.4;stroke-linecap:square"
             d="m 186.9241,157.15334 15.87944,20.60026 -2.9908,-17.66843 z"
             id="path15777" /><path
             style="fill:#c29b00;fill-opacity:1;stroke:none;stroke-width:1.4;stroke-linecap:square"
             d="m 186.9241,157.15334 15.87944,20.60026 -15.87945,-8.30429 z"
             id="path15779" /><path
             style="fill:#ffdd52;fill-opacity:1;stroke:none;stroke-width:1.4;stroke-linecap:square"
             d="m 161.23058,147.54908 25.69352,9.60426 -7.96562,-12.21967 z"
             id="path15781" /><path
             style="fill:#ffdd52;fill-opacity:1;stroke:none;stroke-width:1.4;stroke-linecap:square"
             d="m 212.61761,147.54908 -25.69352,9.60426 7.96562,-12.21967 z"
             id="path15783" /><path
             style="fill:#c29b00;fill-opacity:1;stroke:none;stroke-width:1.4;stroke-linecap:square"
             d="m 186.92409,157.15334 -25.69347,-9.60426 12.80483,12.53609 z"
             id="path15785" /><path
             style="fill:#d2a700;fill-opacity:1;stroke:none;stroke-width:1.4;stroke-linecap:square"
             d="m 186.92409,157.15334 -15.87944,20.60026 2.9908,-17.66843 z"
             id="path15787" /><path
             style="fill:#ffd013;fill-opacity:1;stroke:none;stroke-width:1.4;stroke-linecap:square"
             d="m 186.92408,157.15334 -15.87944,20.60026 15.87945,-8.30429 z"
             id="path15789" /><path
             style="fill:#ffd013;fill-opacity:1;stroke:none;stroke-width:1.4;stroke-linecap:square"
             d="m 186.92409,128.88166 7.96561,16.05201 -7.96561,12.21967 z"
             id="path15791" /></g><g
           id="g15817"
           transform="translate(-157.86221,112.6971)"><path
             id="path15795"
             style="display:inline;fill:#c29b00;fill-opacity:1;stroke-width:0.679881;stroke-linecap:square"
             d="m 186.92409,128.88166 -7.96561,16.05201 -17.72789,2.61541 12.80487,12.53609 -2.99083,17.66843 15.87946,-8.30429 15.87945,8.30429 -2.9908,-17.66843 12.80484,-12.53609 -17.72786,-2.61541 z" /><path
             style="fill:#c29b00;fill-opacity:1;stroke:none;stroke-width:1.4;stroke-linecap:square"
             d="m 186.92409,128.88166 -7.96561,16.05201 7.96561,12.21967 z"
             id="path15797" /><path
             style="fill:#c29b00;fill-opacity:1;stroke:none;stroke-width:1.4;stroke-linecap:square"
             d="m 186.9241,157.15334 25.69347,-9.60426 -12.80483,12.53609 z"
             id="path15799" /><path
             style="fill:#ffd013;fill-opacity:1;stroke:none;stroke-width:1.4;stroke-linecap:square"
             d="m 186.9241,157.15334 15.87944,20.60026 -2.9908,-17.66843 z"
             id="path15801" /><path
             style="fill:#c29b00;fill-opacity:1;stroke:none;stroke-width:1.4;stroke-linecap:square"
             d="m 186.9241,157.15334 15.87944,20.60026 -15.87945,-8.30429 z"
             id="path15803" /><path
             style="fill:#ffdd52;fill-opacity:1;stroke:none;stroke-width:1.4;stroke-linecap:square"
             d="m 161.23058,147.54908 25.69352,9.60426 -7.96562,-12.21967 z"
             id="path15805" /><path
             style="fill:#ffdd52;fill-opacity:1;stroke:none;stroke-width:1.4;stroke-linecap:square"
             d="m 212.61761,147.54908 -25.69352,9.60426 7.96562,-12.21967 z"
             id="path15807" /><path
             style="fill:#c29b00;fill-opacity:1;stroke:none;stroke-width:1.4;stroke-linecap:square"
             d="m 186.92409,157.15334 -25.69347,-9.60426 12.80483,12.53609 z"
             id="path15809" /><path
             style="fill:#d2a700;fill-opacity:1;stroke:none;stroke-width:1.4;stroke-linecap:square"
             d="m 186.92409,157.15334 -15.87944,20.60026 2.9908,-17.66843 z"
             id="path15811" /><path
             style="fill:#ffd013;fill-opacity:1;stroke:none;stroke-width:1.4;stroke-linecap:square"
             d="m 186.92408,157.15334 -15.87944,20.60026 15.87945,-8.30429 z"
             id="path15813" /><path
             style="fill:#ffd013;fill-opacity:1;stroke:none;stroke-width:1.4;stroke-linecap:square"
             d="m 186.92409,128.88166 7.96561,16.05201 -7.96561,12.21967 z"
             id="path15815" /></g><g
           id="g15841"
           transform="translate(-86.077072,112.6971)"><path
             id="path15819"
             style="display:inline;fill:#c29b00;fill-opacity:1;stroke-width:0.679881;stroke-linecap:square"
             d="m 186.92409,128.88166 -7.96561,16.05201 -17.72789,2.61541 12.80487,12.53609 -2.99083,17.66843 15.87946,-8.30429 15.87945,8.30429 -2.9908,-17.66843 12.80484,-12.53609 -17.72786,-2.61541 z" /><path
             style="fill:#c29b00;fill-opacity:1;stroke:none;stroke-width:1.4;stroke-linecap:square"
             d="m 186.92409,128.88166 -7.96561,16.05201 7.96561,12.21967 z"
             id="path15821" /><path
             style="fill:#c29b00;fill-opacity:1;stroke:none;stroke-width:1.4;stroke-linecap:square"
             d="m 186.9241,157.15334 25.69347,-9.60426 -12.80483,12.53609 z"
             id="path15823" /><path
             style="fill:#ffd013;fill-opacity:1;stroke:none;stroke-width:1.4;stroke-linecap:square"
             d="m 186.9241,157.15334 15.87944,20.60026 -2.9908,-17.66843 z"
             id="path15825" /><path
             style="fill:#c29b00;fill-opacity:1;stroke:none;stroke-width:1.4;stroke-linecap:square"
             d="m 186.9241,157.15334 15.87944,20.60026 -15.87945,-8.30429 z"
             id="path15827" /><path
             style="fill:#ffdd52;fill-opacity:1;stroke:none;stroke-width:1.4;stroke-linecap:square"
             d="m 161.23058,147.54908 25.69352,9.60426 -7.96562,-12.21967 z"
             id="path15829" /><path
             style="fill:#ffdd52;fill-opacity:1;stroke:none;stroke-width:1.4;stroke-linecap:square"
             d="m 212.61761,147.54908 -25.69352,9.60426 7.96562,-12.21967 z"
             id="path15831" /><path
             style="fill:#c29b00;fill-opacity:1;stroke:none;stroke-width:1.4;stroke-linecap:square"
             d="m 186.92409,157.15334 -25.69347,-9.60426 12.80483,12.53609 z"
             id="path15833" /><path
             style="fill:#d2a700;fill-opacity:1;stroke:none;stroke-width:1.4;stroke-linecap:square"
             d="m 186.92409,157.15334 -15.87944,20.60026 2.9908,-17.66843 z"
             id="path15835" /><path
             style="fill:#ffd013;fill-opacity:1;stroke:none;stroke-width:1.4;stroke-linecap:square"
             d="m 186.92408,157.15334 -15.87944,20.60026 15.87945,-8.30429 z"
             id="path15837" /><path
             style="fill:#ffd013;fill-opacity:1;stroke:none;stroke-width:1.4;stroke-linecap:square"
             d="m 186.92409,128.88166 7.96561,16.05201 -7.96561,12.21967 z"
             id="path15839" /></g></g></g><g
       id="g17294"
       transform="matrix(0.80395517,0,0,0.80395517,-6.0369706,66.194456)"><rect
         style="fill:#cc0000;fill-opacity:1;fill-rule:evenodd;stroke-width:0.33156"
         id="rect16467"
         width="263.28168"
         height="94.732956"
         x="-30.793823"
         y="359.63245" /><g
         id="g17266"
         transform="translate(0.26456038,1.4255371e-5)"><g
           id="g16491"
           transform="translate(-34.40471,253.68128)"><path
             id="path16469"
             style="display:inline;fill:#c29b00;fill-opacity:1;stroke-width:0.679881;stroke-linecap:square"
             d="m 186.92409,128.88166 -7.96561,16.05201 -17.72789,2.61541 12.80487,12.53609 -2.99083,17.66843 15.87946,-8.30429 15.87945,8.30429 -2.9908,-17.66843 12.80484,-12.53609 -17.72786,-2.61541 z" /><path
             style="fill:#c29b00;fill-opacity:1;stroke:none;stroke-width:1.4;stroke-linecap:square"
             d="m 186.92409,128.88166 -7.96561,16.05201 7.96561,12.21967 z"
             id="path16471" /><path
             style="fill:#c29b00;fill-opacity:1;stroke:none;stroke-width:1.4;stroke-linecap:square"
             d="m 186.9241,157.15334 25.69347,-9.60426 -12.80483,12.53609 z"
             id="path16473" /><path
             style="fill:#ffd013;fill-opacity:1;stroke:none;stroke-width:1.4;stroke-linecap:square"
             d="m 186.9241,157.15334 15.87944,20.60026 -2.9908,-17.66843 z"
             id="path16475" /><path
             style="fill:#c29b00;fill-opacity:1;stroke:none;stroke-width:1.4;stroke-linecap:square"
             d="m 186.9241,157.15334 15.87944,20.60026 -15.87945,-8.30429 z"
             id="path16477" /><path
             style="fill:#ffdd52;fill-opacity:1;stroke:none;stroke-width:1.4;stroke-linecap:square"
             d="m 161.23058,147.54908 25.69352,9.60426 -7.96562,-12.21967 z"
             id="path16479" /><path
             style="fill:#ffdd52;fill-opacity:1;stroke:none;stroke-width:1.4;stroke-linecap:square"
             d="m 212.61761,147.54908 -25.69352,9.60426 7.96562,-12.21967 z"
             id="path16481" /><path
             style="fill:#c29b00;fill-opacity:1;stroke:none;stroke-width:1.4;stroke-linecap:square"
             d="m 186.92409,157.15334 -25.69347,-9.60426 12.80483,12.53609 z"
             id="path16483" /><path
             style="fill:#d2a700;fill-opacity:1;stroke:none;stroke-width:1.4;stroke-linecap:square"
             d="m 186.92409,157.15334 -15.87944,20.60026 2.9908,-17.66843 z"
             id="path16485" /><path
             style="fill:#ffd013;fill-opacity:1;stroke:none;stroke-width:1.4;stroke-linecap:square"
             d="m 186.92408,157.15334 -15.87944,20.60026 15.87945,-8.30429 z"
             id="path16487" /><path
             style="fill:#ffd013;fill-opacity:1;stroke:none;stroke-width:1.4;stroke-linecap:square"
             d="m 186.92409,128.88166 7.96561,16.05201 -7.96561,12.21967 z"
             id="path16489" /></g><g
           id="g16515"
           transform="translate(-138.27857,253.68128)"><path
             id="path16493"
             style="display:inline;fill:#c29b00;fill-opacity:1;stroke-width:0.679881;stroke-linecap:square"
             d="m 186.92409,128.88166 -7.96561,16.05201 -17.72789,2.61541 12.80487,12.53609 -2.99083,17.66843 15.87946,-8.30429 15.87945,8.30429 -2.9908,-17.66843 12.80484,-12.53609 -17.72786,-2.61541 z" /><path
             style="fill:#c29b00;fill-opacity:1;stroke:none;stroke-width:1.4;stroke-linecap:square"
             d="m 186.92409,128.88166 -7.96561,16.05201 7.96561,12.21967 z"
             id="path16495" /><path
             style="fill:#c29b00;fill-opacity:1;stroke:none;stroke-width:1.4;stroke-linecap:square"
             d="m 186.9241,157.15334 25.69347,-9.60426 -12.80483,12.53609 z"
             id="path16497" /><path
             style="fill:#ffd013;fill-opacity:1;stroke:none;stroke-width:1.4;stroke-linecap:square"
             d="m 186.9241,157.15334 15.87944,20.60026 -2.9908,-17.66843 z"
             id="path16499" /><path
             style="fill:#c29b00;fill-opacity:1;stroke:none;stroke-width:1.4;stroke-linecap:square"
             d="m 186.9241,157.15334 15.87944,20.60026 -15.87945,-8.30429 z"
             id="path16501" /><path
             style="fill:#ffdd52;fill-opacity:1;stroke:none;stroke-width:1.4;stroke-linecap:square"
             d="m 161.23058,147.54908 25.69352,9.60426 -7.96562,-12.21967 z"
             id="path16503" /><path
             style="fill:#ffdd52;fill-opacity:1;stroke:none;stroke-width:1.4;stroke-linecap:square"
             d="m 212.61761,147.54908 -25.69352,9.60426 7.96562,-12.21967 z"
             id="path16505" /><path
             style="fill:#c29b00;fill-opacity:1;stroke:none;stroke-width:1.4;stroke-linecap:square"
             d="m 186.92409,157.15334 -25.69347,-9.60426 12.80483,12.53609 z"
             id="path16507" /><path
             style="fill:#d2a700;fill-opacity:1;stroke:none;stroke-width:1.4;stroke-linecap:square"
             d="m 186.92409,157.15334 -15.87944,20.60026 2.9908,-17.66843 z"
             id="path16509" /><path
             style="fill:#ffd013;fill-opacity:1;stroke:none;stroke-width:1.4;stroke-linecap:square"
             d="m 186.92408,157.15334 -15.87944,20.60026 15.87945,-8.30429 z"
             id="path16511" /><path
             style="fill:#ffd013;fill-opacity:1;stroke:none;stroke-width:1.4;stroke-linecap:square"
             d="m 186.92409,128.88166 7.96561,16.05201 -7.96561,12.21967 z"
             id="path16513" /></g></g></g><g
       id="g17309"
       transform="matrix(0.80395517,0,0,0.80395517,-6.0369706,94.104723)"><rect
         style="fill:#cc0000;fill-opacity:1;fill-rule:evenodd;stroke-width:0.33156"
         id="rect16646"
         width="263.28168"
         height="94.732956"
         x="-30.793823"
         y="480.01636" /><g
         id="g16670"
         transform="translate(-86.07708,374.06521)"><path
           id="path16648"
           style="display:inline;fill:#c29b00;fill-opacity:1;stroke-width:0.679881;stroke-linecap:square"
           d="m 186.92409,128.88166 -7.96561,16.05201 -17.72789,2.61541 12.80487,12.53609 -2.99083,17.66843 15.87946,-8.30429 15.87945,8.30429 -2.9908,-17.66843 12.80484,-12.53609 -17.72786,-2.61541 z" /><path
           style="fill:#c29b00;fill-opacity:1;stroke:none;stroke-width:1.4;stroke-linecap:square"
           d="m 186.92409,128.88166 -7.96561,16.05201 7.96561,12.21967 z"
           id="path16650" /><path
           style="fill:#c29b00;fill-opacity:1;stroke:none;stroke-width:1.4;stroke-linecap:square"
           d="m 186.9241,157.15334 25.69347,-9.60426 -12.80483,12.53609 z"
           id="path16652" /><path
           style="fill:#ffd013;fill-opacity:1;stroke:none;stroke-width:1.4;stroke-linecap:square"
           d="m 186.9241,157.15334 15.87944,20.60026 -2.9908,-17.66843 z"
           id="path16654" /><path
           style="fill:#c29b00;fill-opacity:1;stroke:none;stroke-width:1.4;stroke-linecap:square"
           d="m 186.9241,157.15334 15.87944,20.60026 -15.87945,-8.30429 z"
           id="path16656" /><path
           style="fill:#ffdd52;fill-opacity:1;stroke:none;stroke-width:1.4;stroke-linecap:square"
           d="m 161.23058,147.54908 25.69352,9.60426 -7.96562,-12.21967 z"
           id="path16658" /><path
           style="fill:#ffdd52;fill-opacity:1;stroke:none;stroke-width:1.4;stroke-linecap:square"
           d="m 212.61761,147.54908 -25.69352,9.60426 7.96562,-12.21967 z"
           id="path16660" /><path
           style="fill:#c29b00;fill-opacity:1;stroke:none;stroke-width:1.4;stroke-linecap:square"
           d="m 186.92409,157.15334 -25.69347,-9.60426 12.80483,12.53609 z"
           id="path16662" /><path
           style="fill:#d2a700;fill-opacity:1;stroke:none;stroke-width:1.4;stroke-linecap:square"
           d="m 186.92409,157.15334 -15.87944,20.60026 2.9908,-17.66843 z"
           id="path16664" /><path
           style="fill:#ffd013;fill-opacity:1;stroke:none;stroke-width:1.4;stroke-linecap:square"
           d="m 186.92408,157.15334 -15.87944,20.60026 15.87945,-8.30429 z"
           id="path16666" /><path
           style="fill:#ffd013;fill-opacity:1;stroke:none;stroke-width:1.4;stroke-linecap:square"
           d="m 186.92409,128.88166 7.96561,16.05201 -7.96561,12.21967 z"
           id="path16668" /></g></g></g><metadata
     id="metadata17845"><rdf:RDF><cc:Work
         rdf:about=""><dc:title>General (Bangladesh) - জেনারেল</dc:title></cc:Work></rdf:RDF></metadata></svg>
